<?xml version="1.0" encoding="utf-8"?>
<!-- Generator: Adobe Illustrator 25.3.1, SVG Export Plug-In . SVG Version: 6.00 Build 0)  -->
<svg version="1.1" id="Layer_1" xmlns="http://www.w3.org/2000/svg" xmlns:xlink="http://www.w3.org/1999/xlink" x="0px" y="0px"
	 viewBox="0 0 1000 1000" enable-background="new 0 0 1000 1000" width ="1000" height="1000" xml:space="preserve">
<image display="none" overflow="visible" width="348" height="145" xlink:href="Abercrombieandfitch.png"  transform="matrix(1 0 0 1 326 427)">
</image>
<g>
	<path d="M276.024,558.721H141.237l-23.74,54.757c-5.618,13.533-8.424,23.617-8.424,30.25c0,2.811,0.443,5.362,1.341,7.66
		c0.89,2.298,2.806,4.404,5.742,6.318c2.933,1.914,7.02,3.579,12.254,4.979c5.23,1.404,12.189,2.363,20.869,2.869v9.574H39.765
		v-9.574c8.675-1.274,15.7-3.188,21.061-5.742c5.361-2.547,9.956-6.061,13.784-10.529c3.83-4.465,7.336-10.273,10.531-17.423
		c3.188-7.146,7.083-15.953,11.678-26.421l122.533-286.037h8.807l121.002,289.098c4.845,12.002,9.381,21.638,13.592,28.911
		c4.212,7.277,8.55,12.961,13.019,17.039c4.463,4.089,9.316,6.893,14.551,8.427c5.229,1.531,11.548,2.428,18.955,2.678v9.574
		H271.812v-9.574c13.786-0.507,23.167-2.739,28.144-6.701c4.979-3.955,7.468-8.738,7.468-14.358
		c-0.259-7.4-3.703-19.398-10.34-35.996L276.024,558.721z M268.749,539.576L209.78,399.045l-60.501,140.531H268.749z"/>
	<path d="M597.362,522.743h73.461v6.513c-10.074,0.695-17.629,2.956-22.666,6.774c-1.911,1.563-4.863,5.467-8.858,11.72
		c-3.995,6.253-8.554,13.591-13.67,22.011c-5.131,8.427-10.682,17.238-16.674,26.44c-5.992,9.209-11.941,17.451-17.846,24.746
		c10.421,12.158,19.67,20.668,27.746,25.528c8.069,4.863,16.276,7.295,24.612,7.295c8.163,0,14.98-2.214,20.451-6.643
		s9.415-10.895,11.854-19.405l6.506,4.95c-4.342,16.323-11.289,28.393-20.835,36.206c-9.553,7.816-20.668,11.724-33.347,11.724
		c-9.553,0-19.235-2.605-29.041-7.816c-9.813-5.21-20.538-13.978-32.167-26.309c-7.295,6.426-14.068,11.81-20.321,16.152
		s-12.375,7.859-18.367,10.548c-5.985,2.692-12.02,4.599-18.101,5.732c-6.081,1.125-12.503,1.693-19.275,1.693
		c-9.728,0-18.454-1.393-26.179-4.168c-7.729-2.775-14.285-6.553-19.666-11.333c-5.386-4.773-9.553-10.287-12.503-16.54
		c-2.956-6.253-4.429-12.936-4.429-20.057c0-14.068,5.12-28.042,15.369-41.937c5.035-7.121,12.243-14.282,21.62-21.493
		c9.377-7.204,21.186-14.626,35.426-22.271c-2.779-6.249-5.078-11.76-6.902-16.54c-1.824-4.773-3.302-9.158-4.429-13.153
		c-1.131-3.995-1.912-7.816-2.345-11.463c-0.434-3.647-0.651-7.291-0.651-10.938c0-8.684,1.605-16.583,4.82-23.704
		c3.211-7.121,7.553-13.196,13.024-18.237c5.469-5.033,11.89-8.898,19.279-11.59c7.374-2.692,15.32-4.038,23.831-4.038
		c6.774,0,13.026,1.086,18.758,3.257c5.732,2.175,10.674,5.167,14.843,8.988s7.425,8.333,9.77,13.544
		c2.345,5.21,3.517,10.768,3.517,16.67c0,6.253-0.955,12.028-2.866,17.325c-1.911,5.297-5.124,10.417-9.639,15.367
		s-10.414,9.857-17.708,14.716c-7.295,4.867-16.326,10.074-27.094,15.628c7.468,13.2,15.024,25.788,22.666,37.772
		c7.642,11.98,15.537,23.444,23.7,34.385c20.321-24.138,30.481-44.716,30.481-61.737c0-4.512-1.303-8.767-3.908-12.762
		c-2.605-3.995-6.687-6.339-12.245-7.034V522.743z M557.769,636.317c-7.816-10.421-14.372-19.449-19.67-27.091
		s-9.422-13.891-12.368-18.758c-5.732-9.545-12.245-21.529-19.539-35.945c-27.963,16.149-41.939,35.424-41.939,57.829
		c0,6.079,1.042,11.98,3.126,17.712c2.084,5.732,5.035,10.768,8.856,15.107c3.817,4.342,8.507,7.816,14.066,10.421
		c5.556,2.605,11.722,3.908,18.494,3.908c3.649,0,7.166-0.304,10.553-0.912c3.387-0.608,6.94-1.737,10.674-3.387
		s7.816-3.995,12.245-7.034C546.697,645.132,551.864,641.18,557.769,636.317z M530.675,527.433
		c28.824-13.717,43.247-31.259,43.247-52.619c0-8.333-2.569-15.237-7.685-20.708c-5.124-5.471-11.593-8.207-19.409-8.207
		c-5.21,0-9.726,1.002-13.547,2.996c-3.821,2.001-6.991,4.559-9.502,7.685c-2.526,3.126-4.429,6.513-5.732,10.16
		c-1.303,3.644-1.954,7.121-1.954,10.417c0,2.956,0.217,5.905,0.651,8.858c0.427,2.953,1.172,6.296,2.214,10.027
		c1.042,3.738,2.511,8.123,4.429,13.156C525.291,514.237,527.722,520.315,530.675,527.433z"/>
	<path d="M800.56,346.202v136.703h63.181c7.4,0,13.721-0.698,18.953-2.106c5.232-1.4,9.636-3.89,13.211-7.468
		c3.571-3.571,6.379-8.424,8.424-14.55c2.041-6.126,3.698-13.909,4.979-23.357h9.574v117.554h-9.574
		c-0.257-8.677-1.147-16.084-2.681-22.21c-1.531-6.126-4.02-11.163-7.465-15.125c-3.448-3.955-8.044-6.828-13.786-8.615
		c-5.742-1.784-12.957-2.681-21.634-2.681H800.56v109.131c0,8.174,0.127,14.81,0.384,19.912c0.25,5.109,0.89,9.321,1.914,12.635
		c1.017,3.322,2.489,5.938,4.404,7.852s4.404,3.767,7.465,5.551c7.146,4.089,14.937,6.126,23.36,6.126h12.635v9.574H701.383v-9.574
		h12.255c6.126,0,11.546-0.441,16.272-1.339c4.722-0.89,8.615-3.065,11.68-6.51c3.061-3.445,5.42-8.677,7.085-15.7
		c1.657-7.016,2.486-16.525,2.486-28.527V388.707c0-7.91-0.188-14.484-0.572-19.72c-0.384-5.229-1.024-9.505-1.914-12.827
		c-0.897-3.314-2.24-5.996-4.024-8.04c-1.787-2.041-4.212-3.832-7.273-5.362c-3.832-2.041-7.66-3.571-11.488-4.595
		c-3.828-1.017-7.917-1.531-12.252-1.531h-12.255v-9.574h258.852v76.583h-5.742c-3.322-12.505-7.085-22.524-11.297-30.058
		c-4.212-7.526-9.321-13.337-15.317-17.423c-6.003-4.082-13.088-6.763-21.254-8.04c-8.17-1.277-17.994-1.918-29.483-1.918H800.56z"
		/>
</g>
</svg>
