<?xml version="1.0" encoding="utf-8"?>
<!-- Generator: Adobe Illustrator 25.3.1, SVG Export Plug-In . SVG Version: 6.00 Build 0)  -->
<svg version="1.0" id="Layer_1" xmlns="http://www.w3.org/2000/svg" xmlns:xlink="http://www.w3.org/1999/xlink" x="0px" y="0px"
	 viewBox="0 0 2500 1691" enable-background="new 0 0 2500 1691" xml:space="preserve">
<path d="M2308.446,1689.507c-116.919,0-186.254-59.835-191.563-146.003h111.786c0,28.726,15.917,66.96,85.085,69.335
	c47.935,0,74.46-28.717,74.46-50.31c-5.308-33.484-47.935-35.859-90.385-43.176c-47.935-6.95-85.077-16.65-111.786-28.542
	c-37.143-19.209-58.551-60.01-58.551-103.002c0-76.668,64.035-136.503,175.646-136.503c106.486,0,175.646,55.085,180.763,138.878
	h-106.294c0-21.417-5.308-57.451-69.168-57.451c-42.626,0-69.152,7.134-74.46,38.234c0,43.184,90.385,40.801,159.545,57.451
	c63.852,16.834,106.478,57.451,106.478,115.086C2500,1648.889,2414.923,1689.507,2308.446,1689.507"/>
<polyline points="271.348,982.449 638.373,769.294 835.236,1107.052 340.508,1107.052 "/>
<path stroke="#000000" stroke-width="107.399" stroke-miterlimit="33.3341" d="M1043.141,1676.798v-426.302V1676.798z"/>
<path d="M345.616,1256.797v33.484c-37.143-26.159-79.769-38.234-127.703-38.234C101.002,1252.047,0,1347.916,0,1469.952
	s100.994,220.288,217.913,220.288h0.008c47.935,0,95.869-12.075,127.703-36.042v26.342h106.477v-423.743H345.616z M223.214,1591.988
	c-63.668,0-122.211-55.076-122.211-122.036h0c0-64.585,58.543-122.036,122.211-122.036c69.343,0,122.403,57.451,122.403,122.036
	C345.616,1536.912,292.557,1591.988,223.214,1591.988z"/>
<polyline points="1638.488,1106.952 1127.843,216.29 1494.86,0.76 2133.216,1106.952 "/>
<g>
	<polygon points="707.516,1690.241 707.513,1690.241 707.508,1690.241 	"/>
	<path d="M835.228,1110.794v179.487c-37.326-26.159-79.96-38.234-127.711-38.234c-122.403,0-218.088,95.869-218.088,217.905
		c0,122.035,95.684,220.287,218.085,220.288c47.757-0.001,90.382-12.076,127.706-36.042v26.342H941.53v-569.747H835.228z
		 M712.825,1591.988c-69.152,0-122.403-55.076-122.403-122.036c0-64.585,53.243-122.036,122.403-122.036
		c63.668,0,122.403,57.451,122.403,122.036C835.228,1536.912,776.493,1591.988,712.825,1591.988z"/>
</g>
<polyline points="702.275,601.765 1074.6,391.177 1484.26,1106.927 1095.834,1106.927 1095.834,1212.313 989.523,1212.313 
	989.523,1106.927 "/>
<path d="M2431.023,1110.244c-26.709,0-53.235,23.967-53.235,52.693s26.526,52.693,53.235,52.693v0.008
	c31.834,0,53.251-23.984,53.251-52.701S2462.858,1110.244,2431.023,1110.244z M2431.023,1208.496
	c-26.709,0-42.626-21.592-42.626-45.559s15.917-45.368,42.626-45.368c26.534,0,42.451,21.392,42.451,45.368
	S2457.557,1208.496,2431.023,1208.496z"/>
<path d="M2452.616,1151.228c0-9.509-10.609-16.834-15.917-16.834h-23.967v57.451h8.05v-23.967h10.609l10.617,23.967l10.609,0
	l-10.609-23.967C2447.307,1165.503,2452.616,1160.737,2452.616,1151.228z M2431.39,1160.745h-10.609v-19.026h10.609
	c10.617,0,10.617,4.575,10.617,9.509C2442.007,1158.37,2442.007,1160.745,2431.39,1160.745z"/>
<path d="M1973.071,1256.797v33.484c-37.142-26.159-79.768-38.234-127.711-38.234c-122.211,0-217.905,95.869-217.905,217.905
	c0,122.036,95.694,220.289,217.913,220.289l-0.008,0c47.943,0,90.569-12.075,127.72-36.042v26.342h101.169v-423.743H1973.071z
	 M1850.852,1591.988c-69.152,0-122.403-55.076-122.403-122.036c0-64.585,53.243-122.036,122.403-122.036
	c63.852,0,122.22,57.451,122.22,122.036C1973.071,1536.912,1914.703,1591.988,1850.852,1591.988z"/>
<path d="M1484.193,1110.794v179.487c-32.017-26.159-74.652-38.234-122.403-38.234c-122.395,0-223.397,95.869-223.397,217.905
	c0,122.036,101.002,220.289,223.397,220.289c47.759,0,90.385-12.075,122.403-36.042v26.342h106.302v-569.747H1484.193z
	 M1361.79,1591.988c-63.851,0-122.395-55.076-122.395-122.036c0-64.585,58.543-122.036,122.395-122.036
	c69.16,0,122.403,57.451,122.403,122.036C1484.193,1536.912,1430.958,1591.988,1361.79,1591.988z"/>
</svg>
