<?xml version="1.0" encoding="UTF-8" standalone="no"?><!-- Generator: Gravit.io --><svg xmlns="http://www.w3.org/2000/svg" xmlns:xlink="http://www.w3.org/1999/xlink" style="isolation:isolate" viewBox="0 0 425.197 425.197" width="425.197pt" height="425.197pt"><defs><clipPath id="_clipPath_TAbilT7yeDeYYWVdu0DSmF49SNWaJ37X"><rect width="425.197" height="425.197"/></clipPath></defs><g clip-path="url(#_clipPath_TAbilT7yeDeYYWVdu0DSmF49SNWaJ37X)"><g><g><path d=" M 106.104 236.828 L 106.104 171.368 L 144.794 171.368 L 144.794 179.575 L 114.115 179.575 L 114.115 199.702 L 141.667 199.702 L 141.667 207.909 L 114.115 207.909 L 114.115 228.426 L 146.943 228.426 L 146.943 236.633 L 106.104 236.633 L 106.104 236.828 Z " fill="rgb(228,50,37)"/><path d=" M 187.587 236.828 L 174.299 219.438 L 161.012 236.828 L 151.633 236.828 L 169.805 213.575 L 150.656 189.541 L 161.207 189.541 L 174.299 207.518 L 187.587 189.541 L 197.943 189.541 L 179.771 213.575 L 196.966 236.828 L 187.587 236.828 Z " fill="rgb(228,50,37)"/><path d=" M 209.863 229.794 L 209.863 262.035 L 201.851 262.035 L 201.851 213.771 C 201.851 201.46 211.231 188.368 225.886 188.368 C 240.736 188.368 251.874 197.748 251.874 213.185 C 251.874 228.231 240.541 238.587 227.644 238.587 C 221.392 238.587 212.989 235.851 209.863 229.794 L 209.863 229.794 Z  M 243.472 213.185 C 243.472 202.633 236.633 196.38 224.518 196.966 C 218.656 197.162 209.667 201.46 210.449 216.506 C 210.644 221.392 215.725 230.575 226.863 230.575 C 236.438 230.575 243.472 225.104 243.472 213.185 L 243.472 213.185 Z " fill="rgb(228,50,37)"/><path d=" M 258.714 236.828 L 258.714 189.541 L 266.725 189.541 L 266.725 194.621 C 270.633 190.127 276.691 188.564 283.139 188.564 L 283.139 197.162 C 282.162 196.966 272.587 195.794 266.725 208.3 L 266.725 237.024 L 258.714 237.024 L 258.714 236.828 Z " fill="rgb(228,50,37)"/><path d=" M 285.288 213.185 C 285.288 199.506 295.058 188.368 308.541 188.368 C 325.346 188.368 331.599 199.506 331.599 213.771 L 331.599 217.679 L 294.081 217.679 C 294.668 226.667 302.679 231.357 310.105 231.162 C 315.576 230.966 319.288 229.403 323.197 225.495 L 328.472 230.966 C 323.587 235.656 317.334 238.782 309.714 238.782 C 295.449 238.587 285.288 228.035 285.288 213.185 L 285.288 213.185 Z  M 307.955 196.38 C 300.334 196.38 294.472 203.024 294.081 210.254 L 323.197 210.254 C 323.197 203.219 318.116 196.38 307.955 196.38 L 307.955 196.38 Z " fill="rgb(228,50,37)"/><path d=" M 335.702 230.185 C 335.702 230.185 341.564 224.909 341.564 224.909 C 341.369 224.909 344.495 228.035 344.886 228.231 C 346.254 229.403 347.622 230.185 349.381 230.575 C 354.461 231.943 363.645 231.553 364.427 224.518 C 364.817 220.61 361.886 218.461 358.564 217.093 C 354.266 215.529 349.576 214.943 345.277 212.989 C 340.392 210.84 337.266 207.127 337.266 201.656 C 337.266 187.391 357.587 185.047 366.771 191.69 C 367.162 192.081 371.656 196.185 371.461 196.185 L 365.599 200.874 C 362.668 197.357 359.932 195.598 353.679 195.598 C 350.553 195.598 346.254 196.966 345.472 200.288 C 344.3 204.978 349.576 206.736 353.093 207.713 C 357.783 208.886 362.863 209.667 366.967 212.208 C 372.633 215.725 374.001 223.346 371.852 229.208 C 369.507 235.656 362.472 238.196 356.22 238.392 C 348.794 238.782 342.346 236.438 337.07 231.162 C 336.679 231.162 335.702 230.185 335.702 230.185 L 335.702 230.185 Z " fill="rgb(228,50,37)"/><path d=" M 376.932 230.185 C 376.932 230.185 382.794 224.909 382.794 224.909 C 382.599 224.909 385.725 228.035 386.116 228.231 C 387.484 229.403 388.852 230.185 390.611 230.575 C 395.691 231.943 404.875 231.553 405.657 224.518 C 406.047 220.61 403.116 218.461 399.794 217.093 C 395.496 215.529 390.806 214.943 386.507 212.989 C 381.622 210.84 378.496 207.127 378.496 201.656 C 378.496 187.391 398.817 185.047 408.001 191.69 C 408.392 192.081 412.886 196.185 412.691 196.185 L 406.829 200.874 C 403.898 197.357 401.162 195.598 394.909 195.598 C 391.783 195.598 387.484 196.966 386.702 200.288 C 385.53 204.978 390.806 206.736 394.323 207.713 C 399.013 208.886 404.093 209.667 408.197 212.208 C 413.863 215.725 415.231 223.346 413.082 229.208 C 410.737 235.656 403.703 238.196 397.45 238.392 C 390.024 238.782 383.576 236.438 378.3 231.162 C 377.909 231.162 376.932 230.185 376.932 230.185 L 376.932 230.185 Z " fill="rgb(228,50,37)"/><g><path d=" M 415.036 189.541 L 415.036 184.46 L 413.277 184.46 L 413.277 183.483 L 417.967 183.483 L 417.967 184.46 L 416.208 184.46 L 416.208 189.541 L 415.036 189.541 Z " fill="rgb(228,50,37)"/><path d=" M 423.829 189.541 L 423.829 184.851 L 422.07 189.541 L 421.68 189.541 L 419.921 184.851 L 419.921 189.541 L 418.944 189.541 L 418.944 183.483 L 420.507 183.483 L 422.07 187.587 L 423.634 183.483 L 425.197 183.483 L 425.197 189.541 L 423.829 189.541 Z " fill="rgb(228,50,37)"/></g></g><g><path d=" M 51.782 236.828 L 45.92 221.196 L 14.264 221.196 L 8.402 236.828 L 0 236.828 L 25.402 171.368 L 34.586 171.368 L 59.793 236.828 L 51.782 236.828 Z  M 29.701 180.748 L 17.782 213.185 L 42.598 213.185 L 29.701 180.748 Z " fill="rgb(247,151,29)"/><path d=" M 65.069 236.828 L 65.069 171.368 L 73.276 171.368 L 73.276 236.828 L 65.069 236.828 Z " fill="rgb(247,151,29)"/><path d=" M 85.586 236.828 L 85.586 190.518 L 93.793 190.518 L 93.793 236.828 L 85.586 236.828 Z " fill="rgb(247,151,29)"/><path d=" M 101.61 175.472 C 101.61 175.276 101.61 175.276 101.61 175.081 C 101.61 174.886 101.61 174.886 101.61 174.69 C 95.357 174.495 90.276 169.414 90.081 163.161 C 89.885 163.161 89.69 163.161 89.495 163.161 C 89.299 163.161 89.104 163.161 88.908 163.161 C 88.713 169.414 83.632 174.495 77.38 174.69 C 77.38 174.886 77.38 174.886 77.38 175.081 C 77.38 175.276 77.38 175.276 77.38 175.472 C 83.632 175.667 88.713 180.748 88.908 187.001 C 89.104 187.001 89.299 187.001 89.495 187.001 C 89.69 187.001 89.885 187.001 90.081 187.001 C 90.276 180.748 95.357 175.667 101.61 175.472 Z " fill="rgb(247,151,29)"/></g></g></g></svg>