<?xml version="1.0" encoding="utf-8"?>
<!-- Generator: Adobe Illustrator 22.1.0, SVG Export Plug-In . SVG Version: 6.00 Build 0)  -->
<svg version="1.1" id="Layer_1" xmlns="http://www.w3.org/2000/svg" xmlns:xlink="http://www.w3.org/1999/xlink" x="0px" y="0px"
	 viewBox="0 0 612 612" style="enable-background:new 0 0 612 612;" xml:space="preserve">
<style type="text/css">
	.st0{fill-rule:evenodd;clip-rule:evenodd;fill:#FF9900;}
	.st1{fill-rule:evenodd;clip-rule:evenodd;}
</style>
<g>
	<g>
		<path class="st0" d="M373.1,367.9c-32.7,24.2-80.2,37-121,37c-57.3,0-108.8-21.2-147.9-56.4c-3.1-2.8-0.3-6.5,3.4-4.4
			c42.1,24.5,94.2,39.3,147.9,39.3c36.3,0,76.2-7.5,112.8-23.1C373.9,357.9,378.6,363.9,373.1,367.9z"/>
		<path class="st0" d="M386.8,352.3c-4.2-5.4-27.7-2.5-38.2-1.3c-3.2,0.4-3.7-2.4-0.8-4.4c18.7-13.2,49.4-9.4,53-5
			c3.6,4.4-0.9,35.2-18.5,49.9c-2.7,2.3-5.3,1.1-4.1-1.9C382.1,379.8,391,357.7,386.8,352.3z"/>
	</g>
	<path class="st1" d="M349.3,253.7v-12.8c0-1.9,1.5-3.2,3.2-3.2l57.3,0c1.8,0,3.3,1.3,3.3,3.2l0,11c0,1.8-1.6,4.2-4.3,8l-29.7,42.4
		c11-0.3,22.7,1.4,32.7,7c2.3,1.3,2.9,3.1,3,5v13.6c0,1.9-2.1,4.1-4.2,2.9c-17.6-9.2-41-10.3-60.6,0.1c-2,1.1-4.1-1.1-4.1-3v-13
		c0-2.1,0-5.6,2.1-8.8l34.4-49.3l-29.9,0C350.8,256.9,349.3,255.6,349.3,253.7z"/>
	<path class="st1" d="M140.2,333.5h-17.4c-1.7-0.1-3-1.4-3.1-2.9l0-89.5c0-1.8,1.5-3.2,3.4-3.2l16.2,0c1.7,0.1,3.1,1.4,3.2,3v11.7
		h0.3C147,241.3,155,236,165.7,236c10.9,0,17.7,5.3,22.6,16.6c4.2-11.3,13.8-16.6,24.1-16.6c7.3,0,15.3,3,20.2,9.8
		c5.5,7.5,4.4,18.5,4.4,28.1l0,56.5c0,1.8-1.5,3.2-3.4,3.2h-17.4c-1.7-0.1-3.1-1.5-3.1-3.2l0-47.4c0-3.8,0.3-13.2-0.5-16.8
		c-1.3-6-5.2-7.7-10.3-7.7c-4.2,0-8.6,2.8-10.4,7.3c-1.8,4.5-1.6,12.1-1.6,17.1v47.4c0,1.8-1.5,3.2-3.4,3.2h-17.4
		c-1.7-0.1-3.1-1.5-3.1-3.2l0-47.4c0-10,1.6-24.7-10.7-24.7c-12.5,0-12,14.3-12,24.7l0,47.4C143.6,332.1,142.1,333.5,140.2,333.5z"
		/>
	<path class="st1" d="M462.5,236c25.9,0,39.9,22.2,39.9,50.5c0,27.3-15.5,49-39.9,49c-25.4,0-39.2-22.2-39.2-49.9
		C423.3,257.6,437.3,236,462.5,236z M462.6,254.3c-12.9,0-13.7,17.5-13.7,28.4c0,10.9-0.2,34.3,13.5,34.3
		c13.5,0,14.2-18.8,14.2-30.3c0-7.5-0.3-16.6-2.6-23.7C472.1,256.7,468.2,254.3,462.6,254.3z"/>
	<path class="st1" d="M535.9,333.5h-17.4c-1.7-0.1-3.1-1.5-3.1-3.2l0-89.5c0.1-1.6,1.6-2.9,3.3-2.9l16.2,0c1.5,0.1,2.8,1.1,3.1,2.5
		v13.7h0.3c4.9-12.2,11.7-18.1,23.8-18.1c7.8,0,15.5,2.8,20.3,10.5c4.6,7.2,4.6,19.2,4.6,27.9v56.3c-0.2,1.6-1.6,2.8-3.3,2.8h-17.5
		c-1.6-0.1-2.9-1.3-3.1-2.8v-48.6c0-9.8,1.1-24.1-10.9-24.1c-4.2,0-8.1,2.8-10.1,7.2c-2.4,5.5-2.8,10.9-2.8,16.9v48.2
		C539.3,332.1,537.8,333.5,535.9,333.5z"/>
	<path class="st1" d="M303.6,290.8c0,6.8,0.2,12.5-3.3,18.5c-2.8,4.9-7.2,7.9-12.1,7.9c-6.7,0-10.6-5.1-10.6-12.6
		c0-14.8,13.3-17.5,25.9-17.5V290.8z M321.2,333.3c-1.2,1-2.8,1.1-4.1,0.4c-5.8-4.8-6.8-7-10-11.6c-9.6,9.7-16.4,12.7-28.7,12.7
		c-14.7,0-26.1-9.1-26.1-27.2c0-14.2,7.7-23.8,18.6-28.5c9.5-4.2,22.7-4.9,32.8-6v-2.3c0-4.2,0.3-9.1-2.1-12.6
		c-2.1-3.2-6.2-4.5-9.8-4.5c-6.6,0-12.6,3.4-14,10.5c-0.3,1.6-1.4,3.1-3,3.2l-16.9-1.8c-1.4-0.3-3-1.5-2.6-3.6
		c3.9-20.5,22.4-26.7,39-26.7c8.5,0,19.6,2.3,26.3,8.7c8.5,7.9,7.7,18.5,7.7,30V301c0,8.2,3.4,11.8,6.6,16.2
		c1.1,1.6,1.4,3.5-0.1,4.6C331,324.7,324.7,330.2,321.2,333.3L321.2,333.3z"/>
	<path class="st1" d="M75,290.8c0,6.8,0.2,12.5-3.3,18.5c-2.8,4.9-7.2,7.9-12.1,7.9c-6.7,0-10.6-5.1-10.6-12.6
		c0-14.8,13.3-17.5,25.9-17.5V290.8z M92.6,333.3c-1.2,1-2.8,1.1-4.1,0.4c-5.8-4.8-6.8-7-10-11.6c-9.6,9.7-16.3,12.7-28.7,12.7
		c-14.7,0-26.1-9.1-26.1-27.2c0-14.2,7.7-23.8,18.6-28.5c9.5-4.2,22.7-4.9,32.8-6v-2.3c0-4.2,0.3-9.1-2.1-12.6
		c-2.1-3.2-6.2-4.5-9.8-4.5c-6.6,0-12.6,3.4-14,10.5c-0.3,1.6-1.4,3.1-3,3.2l-16.9-1.8c-1.4-0.3-3-1.5-2.6-3.6
		c3.9-20.5,22.4-26.7,39-26.7c8.5,0,19.6,2.3,26.3,8.7c8.5,7.9,7.7,18.5,7.7,30V301c0,8.2,3.4,11.8,6.6,16.2
		c1.1,1.6,1.4,3.5-0.1,4.6C102.5,324.7,96.1,330.2,92.6,333.3L92.6,333.3z"/>
</g>
</svg>
