<?xml version="1.0" encoding="utf-8"?>
<!-- Generator: Adobe Illustrator 22.0.1, SVG Export Plug-In . SVG Version: 6.00 Build 0)  -->
<svg version="1.1" id="Layer_1" xmlns="http://www.w3.org/2000/svg" xmlns:xlink="http://www.w3.org/1999/xlink" x="0px" y="0px"
	 viewBox="0 0 156.6 131.4" style="enable-background:new 0 0 156.6 131.4;" xml:space="preserve">
<path d="M40.2,61.7c0,5-0.3,9.1-0.6,9.1c-0.4,0-0.6-4.1-0.6-9.1V51.3c0-5,0.3-9.1,0.6-9.1c0.4,0,0.6,4.1,0.6,9.1V61.7z"/>
<path d="M43,63.2c0,5-0.4,9.1-0.8,9.1c-0.5,0-0.8-4.1-0.8-9.1V48.3c0-5,0.4-9.1,0.8-9.1c0.5,0,0.8,4.1,0.8,9.1V63.2z"/>
<path d="M51.2,66.5c0,4.7-0.4,8.6-1,8.6c-0.5,0-1-3.9-1-8.6v-27c0-4.8,0.4-8.6,1-8.6c0.5,0,1,3.9,1,8.6V66.5z"/>
<path d="M59.3,68.7c0,5.1-0.5,9.3-1.1,9.3c-0.6,0-1.1-4.2-1.1-9.3V29c0-5.1,0.5-9.3,1.1-9.3c0.6,0,1.1,4.2,1.1,9.3V68.7z"/>
<path d="M61.8,69.8c0,5.1-0.3,9.3-0.7,9.3c-0.4,0-0.7-4.2-0.7-9.3V27.3c0-5.1,0.3-9.3,0.7-9.3c0.4,0,0.7,4.2,0.7,9.3V69.8z"/>
<path d="M69.4,71c0,5.1-0.8,9.3-1.8,9.3c-1,0-1.8-4.2-1.8-9.3V21.4c0-5.1,0.8-9.3,1.8-9.3c1,0,1.8,4.2,1.8,9.3V71z"/>
<path d="M80.8,73.5c0,5.1-1.1,9.3-2.5,9.3s-2.5-4.2-2.5-9.3V9.3c0-5.1,1.1-9.3,2.5-9.3s2.5,4.2,2.5,9.3V73.5z"/>
<path d="M45.7,64.2c0,5.1-0.1,9.3-0.2,9.3c-0.1,0-0.2-4.2-0.2-9.3V45.1c0-5.1,0.1-9.3,0.2-9.3c0.1,0,0.2,4.2,0.2,9.3V64.2z"/>
<path d="M46.9,64.8c0,5.1-0.1,9.3-0.2,9.3c-0.1,0-0.2-4.2-0.2-9.3V45.1c0-5.1,0.1-9.3,0.2-9.3c0.1,0,0.2,4.2,0.2,9.3V64.8z"/>
<path d="M55,68.2c0,5-0.1,9.1-0.2,9.1c-0.1,0-0.2-4.1-0.2-9.1V32.7c0-5,0.1-9.1,0.2-9.1c0.1,0,0.2,4.1,0.2,9.1V68.2z"/>
<path d="M53.5,67.1c0,5.1-0.1,9.3-0.2,9.3c-0.1,0-0.2-4.2-0.2-9.3V37.1c0-5.1,0.1-9.3,0.2-9.3c0.1,0,0.2,4.2,0.2,9.3V67.1z"/>
<path d="M64.2,69.5c0,5.1-0.1,9.3-0.2,9.3c-0.1,0-0.2-4.2-0.2-9.3V25.6c0-5.1,0.1-9.3,0.2-9.3c0.1,0,0.2,4.2,0.2,9.3V69.5z"/>
<path d="M71.9,72.4c0,5.1-0.2,9.3-0.4,9.3c-0.2,0-0.4-4.2-0.4-9.3V20.3c0-5.1,0.2-9.3,0.4-9.3c0.2,0,0.4,4.2,0.4,9.3V72.4z"/>
<path d="M73.8,70.7c0,5.1-0.1,9.3-0.2,9.3c-0.1,0-0.2-4.2-0.2-9.3V16.4c0-5.1,0.1-9.3,0.2-9.3c0.1,0,0.2,4.2,0.2,9.3V70.7z"/>
<path d="M116.6,61.7c0,5,0.3,9.1,0.7,9.1c0.4,0,0.7-4.1,0.7-9.1V51.3c0-5-0.3-9.1-0.7-9.1c-0.4,0-0.7,4.1-0.7,9.1V61.7z"/>
<path d="M113.8,63.2c0,5,0.4,9.1,0.8,9.1c0.5,0,0.8-4.1,0.8-9.1V48.3c0-5-0.4-9.1-0.8-9.1c-0.5,0-0.8,4.1-0.8,9.1V63.2z"/>
<path d="M105.6,66.5c0,4.7,0.4,8.6,1,8.6c0.5,0,1-3.9,1-8.6v-27c0-4.8-0.4-8.6-1-8.6c-0.5,0-1,3.9-1,8.6V66.5z"/>
<path d="M97.5,68.7c0,5.1,0.5,9.3,1.1,9.3c0.6,0,1.1-4.2,1.1-9.3V29c0-5.1-0.5-9.3-1.1-9.3c-0.6,0-1.1,4.2-1.1,9.3V68.7z"/>
<path d="M95,69.8c0,5.1,0.3,9.3,0.7,9.3c0.4,0,0.7-4.2,0.7-9.3V27.3c0-5.1-0.3-9.3-0.7-9.3c-0.4,0-0.7,4.2-0.7,9.3V69.8z"/>
<path d="M87.4,71c0,5.1,0.8,9.3,1.8,9.3c1,0,1.8-4.2,1.8-9.3V21.4c0-5.1-0.8-9.3-1.8-9.3c-1,0-1.8,4.2-1.8,9.3V71z"/>
<path d="M111.1,64.2c0,5.1,0.1,9.3,0.2,9.3c0.1,0,0.2-4.2,0.2-9.3V45.1c0-5.1-0.1-9.3-0.2-9.3c-0.1,0-0.2,4.2-0.2,9.3V64.2z"/>
<path d="M109.8,64.8c0,5.1,0.1,9.3,0.2,9.3c0.1,0,0.2-4.2,0.2-9.3V45.1c0-5.1-0.1-9.3-0.2-9.3c-0.1,0-0.2,4.2-0.2,9.3V64.8z"/>
<path d="M101.8,68.2c0,5,0.1,9.1,0.2,9.1c0.1,0,0.3-4.1,0.3-9.1V32.7c0-5-0.1-9.1-0.3-9.1c-0.1,0-0.2,4.1-0.2,9.1V68.2z"/>
<path d="M103.3,67.1c0,5.1,0.1,9.3,0.2,9.3c0.1,0,0.2-4.2,0.2-9.3V37.1c0-5.1-0.1-9.3-0.2-9.3c-0.1,0-0.2,4.2-0.2,9.3V67.1z"/>
<path d="M92.6,69.5c0,5.1,0.1,9.3,0.2,9.3c0.1,0,0.2-4.2,0.2-9.3V25.6c0-5.1-0.1-9.3-0.2-9.3c-0.1,0-0.2,4.2-0.2,9.3V69.5z"/>
<path d="M84.9,72.4c0,5.1,0.2,9.3,0.4,9.3c0.2,0,0.4-4.2,0.4-9.3V20.3c0-5.1-0.2-9.3-0.4-9.3c-0.2,0-0.4,4.2-0.4,9.3V72.4z"/>
<path d="M83,70.7c0,5.1,0.1,9.3,0.2,9.3c0.1,0,0.2-4.2,0.2-9.3V16.4c0-5.1-0.1-9.3-0.2-9.3c-0.1,0-0.2,4.2-0.2,9.3V70.7z"/>
<path d="M79.3,99.7h6v-3.9h-6V99.7z M129.5,102.1c-2.7,1.5-4.3,3.8-4.7,6.8h6.1c0.7-3.1,3.7-4.9,8.4-4.9c5.2,0,8.1,1.8,8.1,4.9
	c0,3.8-3.8,4.2-7.8,4.7c-1.1,0.1-2.2,0.2-3.4,0.4l0,0l0,0l0,0c-3.2,0.3-6.5,0.8-8.8,2.1c-2.6,1.4-3.9,3.6-3.9,6.8
	c0,5.8,5.6,8.3,11.1,8.3c3.6,0,8.5-0.9,11.5-3.6l1.1-1l0.3,1.4c0.5,2.2,2.1,3.2,5.1,3.2c1,0,2.8-0.3,4-0.6v-3.4c-0.4,0-0.8,0-1.1,0
	c-2.3,0-2.7-1.6-2.7-3.1v-16c0-6.1-6.8-8.3-13.1-8.3C135.6,100.1,132,100.8,129.5,102.1 M129.4,122.7c0-4.4,4-5.5,7-5.9
	c1-0.2,2-0.3,3-0.4c2.4-0.3,4.6-0.5,6.1-1.4l1.3-0.8v6.5c0,4.9-5.7,6.6-9.5,6.6C133.5,127.4,129.4,125.9,129.4,122.7 M89.6,116
	c0,4.4,1.4,8.2,4.2,10.9c2.8,2.8,7,4.3,11.9,4.3c4.2,0,7.7-1,10.3-3c2.4-1.9,3.9-4.5,4.7-8h-6c-1,4.4-4.3,7.1-9,7.1
	c-7.4,0-10.1-6.1-10.1-11.4c0-4.4,1.2-7.7,3.6-9.7c2.2-1.9,5-2.3,6.9-2.3c4.1,0,7.2,1.8,8.4,4.9h6.1c-0.7-2.7-2.3-4.9-4.8-6.4
	c-2.6-1.6-5.9-2.4-9.8-2.4C95.9,100.1,89.6,106.2,89.6,116 M6.1,102.1c-2.7,1.5-4.3,3.8-4.7,6.8h6.1c0.7-3.1,3.7-4.9,8.4-4.9
	c5.2,0,8.1,1.8,8.1,4.9c0,3.8-3.8,4.2-7.8,4.7c-1.1,0.1-2.2,0.2-3.4,0.4l0,0l0,0l0,0c-3.2,0.3-6.5,0.8-8.8,2.1
	C1.3,117.6,0,119.8,0,123c0,5.8,5.6,8.3,11.1,8.3c3.6,0,8.5-0.9,11.5-3.6l1.1-1l0.3,1.4c0.5,2.2,2.1,3.2,5.1,3.2c1,0,2.9-0.3,4-0.6
	v-3.4c-0.4,0-0.8,0-1.1,0c-2.3,0-2.7-1.6-2.7-3.1v-16c0-6.1-6.8-8.3-13.1-8.3C12.1,100.1,8.6,100.8,6.1,102.1 M6,122.7
	c0-4.4,4-5.5,7-5.9c1-0.2,2-0.3,3-0.4c2.4-0.3,4.6-0.5,6.1-1.4l1.3-0.8v6.5c0,4.9-5.7,6.6-9.5,6.6C10.1,127.4,6,125.9,6,122.7
	 M59.9,95.8v4.1h-4.6v3.6h4.6v20.7c0.1,5,1.4,7.2,8.8,7.2c1.1,0,2.1-0.1,3.2-0.2c0,0,0.6,0,1-0.1v-3.7c-0.8,0.1-1.6,0.1-2.4,0.1
	c-4.2,0-4.5-2.2-4.5-5v-18.9h9.2v-3.6h-9.2v-4.1H59.9z M37.6,95.8v4.1H33v3.6h4.6v20.7c0.1,5,1.4,7.2,8.8,7.2c1.1,0,2.1-0.1,3.2-0.2
	c0,0,0.6,0,1-0.1v-3.7c-0.8,0.1-1.6,0.1-2.4,0.1c-4.2,0-4.5-2.2-4.5-5v-18.9h9.2v-3.6h-9.2v-4.1H37.6z M79.3,131.4h6v-29.5h-6V131.4
	z"/>
</svg>
