<?xml version="1.0" encoding="utf-8"?>
<!-- Generator: Adobe Illustrator 22.1.0, SVG Export Plug-In . SVG Version: 6.00 Build 0)  -->
<svg version="1.1"
	 id="svg2" inkscape:version="0.48.2 r9819" sodipodi:docname="Aeropostale_logo2.svg" xmlns:cc="http://creativecommons.org/ns#" xmlns:dc="http://purl.org/dc/elements/1.1/" xmlns:inkscape="http://www.inkscape.org/namespaces/inkscape" xmlns:rdf="http://www.w3.org/1999/02/22-rdf-syntax-ns#" xmlns:sodipodi="http://sodipodi.sourceforge.net/DTD/sodipodi-0.dtd" xmlns:svg="http://www.w3.org/2000/svg"
	 xmlns="http://www.w3.org/2000/svg" xmlns:xlink="http://www.w3.org/1999/xlink" x="0px" y="0px" viewBox="0 0 500 500"
	 style="enable-background:new 0 0 500 500;" xml:space="preserve">
<style type="text/css">
	.st0{display:none;fill:none;}
	.st1{fill:none;stroke:#BF291A;stroke-miterlimit:10;}
	.st2{fill:#BF291A;}
	.st3{fill:#FFDB2C;}
	.st4{fill:#B01E22;}
</style>
<sodipodi:namedview  bordercolor="#666666" borderopacity="1" gridtolerance="10" guidetolerance="10" id="namedview35" inkscape:current-layer="svg2" inkscape:cx="305.96738" inkscape:cy="101.65201" inkscape:pageopacity="0" inkscape:pageshadow="2" inkscape:window-height="1003" inkscape:window-maximized="1" inkscape:window-width="1680" inkscape:window-x="-4" inkscape:window-y="-4" inkscape:zoom="1.2764184" objecttolerance="10" pagecolor="#ffffff" showgrid="false">
	</sodipodi:namedview>
<g id="g70">
	<g id="g6">
		<rect id="rect2" x="-0.2" y="79.4" class="st0" width="503.3" height="346.6"/>
		<rect id="rect4" x="10.2" y="88.7" class="st1" width="482.9" height="328"/>
	</g>
	<g id="g68">
		<path id="path8" d="M251.6,252.9"/>
		<path id="path10" class="st2" d="M32.8,111.3h89.5c40.9,0,82.8,9.7,82.8,58.7c0,18.6-9.3,36.8-27.9,42.7v1.9
			c23,8.2,37.5,24.9,37.5,50.1c0,43.5-40.5,58.3-77.6,58.3H32.8V111.3z M111.2,192.7c11.1,0,23.8-1.1,23.8-15.6
			c0-15.6-14.5-14.5-25.6-14.5h-5.2v30.5h7.1V192.7z M104.1,272.6h8.5c12.6,0,30.8-0.4,30.8-17.8c0-17.8-19.7-17.5-31.9-17.5h-7.4
			C104.1,237.3,104.1,272.6,104.1,272.6z"/>
		<path id="path12" class="st2" d="M274.6,111.3h74.3v71.3h47.2v-71.3h74.3v212.1h-74.3v-73.9h-47.2v73.5h-74.3V111.3z"/>
		<rect id="rect14" x="32.8" y="335" class="st2" width="437.6" height="59.1"/>
		<g id="g56">
			<path id="path16" class="st3" d="M43.2,378.1v-26.7h5.9c1.1,0,10-0.7,10,7.8c0,5.2-3.7,7.8-8.9,7.8h-1.1v11.1H43.2z M48.8,362.8
				c3,0,4.5-0.7,4.5-3.7c0-1.9-0.7-3.3-3.3-3.3h-1.1V362.8z"/>
			<path id="path18" class="st3" d="M67.7,351.3v10.4h5.9v-10.4h5.9v26.7h-5.9v-11.5h-5.9v11.5h-5.9v-26.7H67.7z"/>
			<path id="path20" class="st3" d="M103,364.7c0,10-5.2,13.7-10.4,13.7c-5.2,0-10.4-3.7-10.4-13.7c0-10,5.2-13.7,10.4-13.7
				C97.8,350.9,103,354.7,103,364.7z M92.6,373.6c3.7,0,4.1-6.7,4.1-8.9c0-2.2-0.4-8.9-4.1-8.9s-4.1,6.7-4.1,8.9
				S88.9,373.6,92.6,373.6z"/>
			<path id="path22" class="st3" d="M119.8,351.3v4.8h-4.5v21.9h-5.9v-21.9h-4.5v-4.8H119.8z"/>
			<path id="path24" class="st3" d="M141.7,364.7c0,10-5.2,13.7-10.4,13.7c-5.2,0-10.4-3.7-10.4-13.7c0-10,5.2-13.7,10.4-13.7
				C136.5,350.9,141.7,354.7,141.7,364.7z M131.3,373.6c3.7,0,4.1-6.7,4.1-8.9c0-2.2-0.4-8.9-4.1-8.9s-4.1,6.7-4.1,8.9
				C127.2,366.9,127.6,373.6,131.3,373.6z"/>
			<path id="path26" class="st3" d="M163.2,363.9v4.8h-10v-4.8H163.2z"/>
			<path id="path28" class="st3" d="M180.3,351.3l3.3,13c0.4,1.5,0.7,3,1.1,4.5l0,0c0.4-1.5,0.4-3,0.7-4.8l3.7-13h5.9l-8.2,26.7
				h-4.8l-8.5-26.7h6.7V351.3z"/>
			<path id="path30" class="st3" d="M203.7,351.3v26.7h-5.9v-26.7H203.7z"/>
			<path id="path32" class="st3" d="M207.4,378.1v-26.7h4.5c1.1,0,13.4-1.5,13.4,13.7c0,7.8-3.3,13.4-12.6,13.4h-5.2V378.1z
				 M219.3,364.7c0-3.3-1.1-8.9-5.9-8.9v17.5C218.2,373.6,219.3,368,219.3,364.7z"/>
			<path id="path34" class="st3" d="M239.7,351.3v4.8h-5.9v5.9h5.2v4.8h-5.2v5.9h5.9v4.8h-11.9v-26.7h11.9V351.3z"/>
			<path id="path36" class="st3" d="M263.1,364.7c0,10-5.2,13.7-10.4,13.7c-5.2,0-10.4-3.7-10.4-13.7c0-10,5.2-13.7,10.4-13.7
				C257.9,350.9,263.1,354.7,263.1,364.7z M252.7,373.6c3.7,0,4.1-6.7,4.1-8.9c0-2.2-0.4-8.9-4.1-8.9c-3.7,0-4.1,6.7-4.1,8.9
				C248.3,366.9,248.6,373.6,252.7,373.6z"/>
			<path id="path38" class="st3" d="M284.3,363.9v4.8h-9.7v-4.8H284.3z"/>
			<path id="path40" class="st3" d="M296.9,378.1v-26.7h5.9c1.1,0,10-0.7,10,7.8c0,5.2-3.7,7.8-8.9,7.8h-1.1v11.1H296.9z
				 M302.9,362.8c3,0,4.5-0.7,4.5-3.7c0-1.9-0.7-3.3-3.3-3.3h-1.1L302.9,362.8L302.9,362.8z"/>
			<path id="path42" class="st3" d="M315.9,378.1v-26.7h5.9c3.7,0,10.4,0.4,10.4,7.8c0,3-1.1,5.6-4.1,7.1l5.2,12.3H327l-5.2-12.3
				l0,0v12.3h-5.9V378.1z M321.4,362.8h1.1c2.6,0,3.7-1.5,3.7-3.7c0-1.9-1.1-3.3-4.1-3.3h-0.7L321.4,362.8L321.4,362.8z"/>
			<path id="path44" class="st3" d="M356,364.7c0,10-5.2,13.7-10.4,13.7s-10.4-3.7-10.4-13.7c0-10,5.2-13.7,10.4-13.7
				C350.8,350.9,356,354.7,356,364.7z M345.6,373.6c3.7,0,4.1-6.7,4.1-8.9c0-2.2-0.4-8.9-4.1-8.9s-4.1,6.7-4.1,8.9
				C341.5,366.9,341.9,373.6,345.6,373.6z"/>
			<path id="path46" class="st3" d="M379.8,351.3l7.1,26.7h-6.3l-1.1-4.5h-5.9l-1.1,4.5h-5.9l6.7-26.7L379.8,351.3L379.8,351.3z
				 M377.2,362.1l-0.7-4.1l0,0l-0.7,4.1l-1.1,7.1h4.1L377.2,362.1z"/>
			<path id="path48" class="st3" d="M394.6,351.3v17.5c0,1.9-0.4,5.2,3,5.2c3,0,3-1.9,3-4.1v-18.6h5.9V371c0,3-0.4,7.8-8.9,7.8
				c-5.6,0-8.5-2.2-8.5-7.4v-20.1H394.6z"/>
			<path id="path50" class="st3" d="M409.9,378.1v-26.7h4.5c1.1,0,13.4-1.5,13.4,13.7c0,7.8-3.3,13.4-12.6,13.4h-5.2V378.1z
				 M421.7,364.7c0-3.3-1.1-8.9-5.9-8.9v17.5C420.6,373.6,421.7,368,421.7,364.7z"/>
			<path id="path52" class="st3" d="M436.2,351.3v26.7h-5.9v-26.7H436.2z"/>
			<path id="path54" class="st3" d="M460,364.7c0,10-5.2,13.7-10.4,13.7c-5.2,0-10.4-3.7-10.4-13.7c0-10,5.2-13.7,10.4-13.7
				C454.8,350.9,460,354.7,460,364.7z M449.6,373.6c3.7,0,4.1-6.7,4.1-8.9c0-2.2-0.4-8.9-4.1-8.9c-3.7,0-4.1,6.7-4.1,8.9
				C445.5,366.9,445.9,373.6,449.6,373.6z"/>
		</g>
		<g id="g64">
			<path id="path58" class="st4" d="M204.4,194.9c0,8.5,6.7,15.6,12.6,21.9c-17.1,8.5-34.5,17.5-34.5,36.4
				c0,17.1,19.3,31.2,43.1,31.2c17.5,0,32.3-8.2,44.6-16c1.9,1.9,14.5,14.5,14.5,14.5h25.6c0,0-23-22.7-25.6-25.3
				c2.6-2.6,18.2-16,18.2-16l-14.9-9.3c0,0-13,11.5-15.6,13.7c-2.2-2.2-22.7-21.9-26-25.3c11.9-6.7,23.4-13.7,23.4-26.7
				c0-13-14.1-23-31.9-23C218.2,170.4,204.4,180.8,204.4,194.9z M186.6,253.2c0-16.3,16-24.5,33.1-33.1l4.1-2.2l-3.3-3.7
				c-5.9-5.9-11.9-12.3-11.9-19.3c0-11.9,11.9-20.4,28.6-20.4c15.6,0,27.5,8.2,27.5,18.6c0,11.1-11.1,17.5-22.7,24.1l-3.3,1.9
				l33.1,31.9c0,0,14.1-12.3,16-14.1c1.5,1.1,5.2,3,7.4,4.8c-3.3,3-17.5,15.2-17.5,15.2s16.3,16,21.5,21.2c-5.2,0-12.6,0-13.7,0
				c-1.1-1.1-15.6-15.6-15.6-15.6l-1.5,1.1c-11.1,8.2-26,16.3-43.1,16.3C204.1,280,186.6,268.1,186.6,253.2z"/>
			<path id="path60" class="st4" d="M219.3,191.2c0,5.6,3.7,9.3,7.4,13l6.3,6.3l2.6-1.5l3-1.9c7.1-4.1,15.6-8.5,15.6-17.1
				c0-7.4-7.4-13-17.5-13C227.1,177.5,219.3,183.4,219.3,191.2z M229.7,201.6c-3-3.3-5.9-6.7-5.9-10.4c0-5.2,5.9-9.7,13.4-9.7
				c6.3,0,13,3.3,13,8.9c0,6.3-6.3,9.7-13.4,13.7c0,0-2.6,1.5-3,1.5C232.7,204.6,229.7,201.6,229.7,201.6z"/>
			<path id="path62" class="st4" d="M220.4,227.2c-10.8,5.6-24.1,12.6-24.1,24.5c0,11.1,12.6,21.2,26.7,21.2
				c14.5,0,26.7-8.2,36.8-14.9l3-1.9l-34.2-33.1L220.4,227.2z M227.8,228c1.9,1.9,24.9,24.5,28.2,27.5c-9.3,5.9-20.4,13-33.1,13
				c-11.9,0-22.7-8.2-22.7-17.1c0-9.7,11.5-15.6,21.9-20.8C222.3,231,226,228.7,227.8,228z"/>
		</g>
		<path id="path66" class="st3" d="M270.2,265.5c-12.3,8.5-27.1,16.7-44.6,16.7c-21.2,0-40.9-12.3-40.9-29c0-17.8,16.7-26,34.2-34.9
			l1.9-0.7c-6.3-6.7-13.7-13.7-13.7-22.7c0-13.4,13-22.7,30.5-22.7c15.6,0,29.7,8.5,29.7,20.8c0,12.6-12.6,19.7-24.5,26.4L272,248
			l15.6-13.7l11.1,7.1L281,257l23.8,23H285L270.2,265.5z M234.5,207.6c7.8-4.5,17.5-8.5,17.5-17.1c0-6.3-7.1-10.8-15.2-10.8
			c-8.5,0-15.2,5.2-15.2,11.5c0,5.2,4.5,9.3,8.5,13.4l3.3,3.3L234.5,207.6z M221.5,228.7c-10.4,5.6-23,11.9-23,22.7
			c0,10,11.5,18.9,24.5,18.9c14.1,0,26.4-8.2,36.4-14.9L228.2,225L221.5,228.7z"/>
	</g>
</g>
</svg>
