<?xml version="1.0" encoding="utf-8"?>
<!-- Generator: Adobe Illustrator 25.3.1, SVG Export Plug-In . SVG Version: 6.00 Build 0)  -->
<svg version="1.1" id="Layer_1" xmlns="http://www.w3.org/2000/svg" xmlns:xlink="http://www.w3.org/1999/xlink" x="0px" y="0px"
	 viewBox="0 0 500 500" enable-background="new 0 0 500 500" width="500" height="500" xml:space="preserve">
<g>
	<path fill="#002D62" d="M84.893,192.69c0.263,0.491,0.772,0.267,1.152,0.354c8.077,1.866,12.896,7.112,13.227,15.483
		c0.436,11.014-2.584,21.111-9.605,29.792c-2.679,3.313-6.094,5.678-10.223,6.976c0.04,0.057,0.063,0.13,0.102,0.14
		c6.492,1.67,9.24,6.43,10.254,12.543c1.173,7.071,0.002,13.971-1.706,20.818c-1.546,6.2-3.883,12.04-8.028,16.996
		c-5.409,6.467-12.255,9.958-20.812,9.931c-13.628-0.043-27.256-0.012-40.884-0.01c-0.43,0-0.861,0.028-1.291,0.042
		c0-0.259,0-0.517,0-0.776c1.479-9.318,3.864-18.445,5.825-27.661c1.696-7.966,3.489-15.91,5.225-23.867
		c2.746-12.588,5.526-25.168,8.3-37.75c1.559-7.069,3.053-14.153,4.636-21.217c0.147-0.658,0.154-1.399,0.861-1.794
		C56.249,192.69,70.571,192.69,84.893,192.69z"/>
	<path fill="#002D62" d="M395.491,307.308c-1.817-0.633-3.755-0.59-5.615-1.009c-3.161-0.713-6.257-1.573-8.993-3.387
		c-3.806-2.523-5.21-5.89-4.259-10.346c2.675-12.532,5.375-25.058,8.065-37.586c0.939-4.371,1.938-8.73,2.794-13.117
		c0.596-3.055,2.125-5.517,4.37-7.568c3.987-3.642,8.84-5.419,14.067-6.256c7.967-1.275,15.882-1.041,23.68,1.171
		c2.454,0.696,4.763,1.738,6.753,3.394c2.796,2.327,3.733,5.342,3.011,8.807c-3.66,17.553-7.357,35.098-11.092,52.635
		c-0.955,4.485-4.099,7.255-7.925,9.334c-4.233,2.3-8.866,3.209-13.608,3.675c-0.303,0.03-0.707-0.211-0.894,0.253
		c-0.518,0-1.035,0-1.553,0c-0.518-0.211-1.035-0.211-1.553,0c-1.38,0-2.761,0-4.141,0c-0.518-0.211-1.035-0.211-1.553,0
		C396.526,307.308,396.009,307.308,395.491,307.308z"/>
	<path fill="#002D62" d="M334.924,307.308c-1.638-0.63-3.408-0.603-5.092-1.021c-2.73-0.678-5.373-1.539-7.72-3.14
		c-3.797-2.59-5.217-6.264-4.415-10.664c0.847-4.65,2.013-9.241,3.028-13.861c0.119-0.54,0.346-0.781,0.952-0.779
		c6.512,0.021,13.023,0.025,19.535-0.002c1.008-0.004,0.725,0.569,0.619,1.091c-0.614,3.035-1.267,6.062-1.843,9.103
		c-0.249,1.314-0.251,2.654,0.018,3.982c0.291,1.435,0.911,2.677,2.432,3.04c1.61,0.384,3.171,0.205,4.431-1.074
		c0.771-0.782,1.309-1.714,1.723-2.708c1.103-2.646,1.683-5.434,1.793-8.279c0.109-2.819-1.267-5.011-3.37-6.809
		c-3.479-2.974-7.343-5.422-11.03-8.111c-4.748-3.463-8.04-7.847-8.98-13.784c-0.548-3.459,0.352-6.741,1.093-10.063
		c0.687-3.076,1.312-6.13,3.379-8.678c3.252-4.009,7.559-6.258,12.495-7.193c8.763-1.66,17.543-1.775,26.239,0.567
		c1.58,0.425,3.072,1.093,4.476,1.951c4.19,2.56,5.897,6.433,4.918,11.235c-0.558,2.739-1.176,5.467-1.688,8.214
		c-0.135,0.724-0.416,0.894-1.093,0.892c-6.425-0.02-12.851-0.022-19.276,0.001c-0.737,0.003-0.976-0.138-0.802-0.937
		c0.576-2.649,1.062-5.317,1.611-7.972c0.551-2.664-0.074-4.345-1.906-5.005c-2.416-0.871-5.341,0.027-6.208,2.248
		c-1.158,2.967-1.983,6.081-1.302,9.324c0.442,2.103,1.575,3.783,3.471,4.913c3.733,2.224,7.47,4.441,11.165,6.728
		c3.037,1.879,5.67,4.208,7.532,7.314c2.404,4.01,2.315,8.252,1.232,12.613c-0.714,2.878-1.373,5.772-1.984,8.675
		c-1.741,8.266-7.107,13.21-14.723,16.061c-2.832,1.06-5.79,1.65-8.814,1.869c-0.207,0.015-0.439-0.027-0.506,0.259
		c-0.431,0-0.863,0-1.294,0c-0.431-0.211-0.863-0.211-1.294,0C340.791,307.308,337.858,307.308,334.924,307.308z"/>
	<path fill="#FEFEFE" d="M41.927,192.69c-0.997,4.398-2.018,8.791-2.986,13.195c-3.508,15.958-6.995,31.92-10.498,47.879
		c-3.695,16.836-7.399,33.671-11.103,50.506c-0.054,0.244-0.172,0.473-0.261,0.709c0-37.042,0.004-74.083-0.024-111.125
		c-0.001-0.97,0.218-1.196,1.189-1.19C26.138,192.71,34.033,192.69,41.927,192.69z"/>
	<path fill="#022D62" d="M482.976,297.476c-0.684,1.745-1.325,3.507-2.592,4.952c-2.473,2.823-5.51,4.535-9.317,4.583
		c-5.418,0.068-8.909-4.093-8.006-9.445c1.031-6.114,8.022-10.809,14.045-9.416c2.73,0.631,4.551,2.305,5.53,4.922
		c0.099,0.264-0.018,0.63,0.34,0.782C482.976,295.061,482.976,296.268,482.976,297.476z"/>
	<path fill="#3D638B" d="M397.044,307.308c0.518-0.397,1.035-0.401,1.553,0C398.079,307.308,397.562,307.308,397.044,307.308z"/>
	<path fill="#3E608A" d="M402.738,307.308c0.518-0.398,1.035-0.399,1.553,0C403.774,307.308,403.256,307.308,402.738,307.308z"/>
	<path fill="#3D638B" d="M343.725,307.308c0.431-0.383,0.863-0.385,1.294,0C344.587,307.308,344.156,307.308,343.725,307.308z"/>
	<path fill="#002D62" d="M215.907,305.711c-5.996,0-11.992-0.016-17.988,0.016c-0.965,0.005-1.349-0.056-1.09-1.246
		c4.659-21.395,9.259-42.803,13.887-64.204c2.9-13.412,5.837-26.817,8.714-40.235c0.176-0.822,0.467-1.037,1.254-1.033
		c6.341,0.029,12.682,0.039,19.023,0.005c0.925-0.005,1.004,0.211,0.814,1.078c-1.971,8.992-3.863,18.001-5.847,26.99
		c-0.24,1.087,0.041,1.196,1,1.199c4.484,0.013,8.973-0.183,13.452,0.104c2.47,0.158,4.83,0.84,7.029,1.991
		c5.012,2.623,7.146,7.306,5.908,13.17c-2.834,13.428-5.719,26.844-8.58,40.266c-0.815,3.822-1.403,7.7-3.259,11.23
		c-3.683,7.006-9.365,10.697-17.364,10.672C227.209,305.697,221.558,305.711,215.907,305.711z"/>
	<path fill="#002D62" d="M288.116,305.711c-5.035-0.155-11.247,0.272-17.446-0.219c-2.198-0.174-4.337-0.644-6.365-1.545
		c-3.513-1.561-5.288-4.313-5.756-8.086c-0.561-4.524,0.656-8.789,1.635-13.109c1.928-8.507,7.107-14.165,14.975-17.687
		c7.256-3.248,14.405-6.733,21.701-9.896c0.518-0.225,0.866-0.471,0.985-1.05c0.756-3.665,1.632-7.308,2.272-10.992
		c0.737-4.242-2.08-6.862-6.295-5.945c-3.017,0.656-4.354,2.938-4.941,5.688c-0.798,3.744-1.462,7.517-2.121,11.289
		c-0.167,0.957-0.471,1.325-1.539,1.311c-5.346-0.072-10.694-0.035-16.041-0.041c-1.605-0.002-1.612-0.009-1.291-1.52
		c1.047-4.922,2.161-9.83,3.128-14.767c0.654-3.34,2.632-5.631,5.363-7.405c3.16-2.053,6.696-3.115,10.374-3.704
		c8.209-1.315,16.383-1.255,24.466,0.893c2.551,0.678,4.971,1.681,7.077,3.328c2.976,2.327,4.113,5.398,3.331,9.039
		c-3.524,16.397-7.116,32.779-10.682,49.167c-1.024,4.706-2.065,9.409-3.042,14.125c-0.181,0.875-0.489,1.159-1.414,1.151
		C300.756,305.686,295.02,305.711,288.116,305.711z"/>
	<path fill="#002D62" d="M121.992,305.366c-5.82,0-11.641,0.04-17.46-0.021c-2.154-0.022-4.272-0.441-6.328-1.138
		c-4.514-1.531-6.807-4.635-7.116-9.413c-0.301-4.648,0.941-9.026,2.054-13.449c1.772-7.047,6.049-12.072,12.377-15.401
		c2.925-1.539,5.977-2.841,8.986-4.218c5.003-2.291,10.012-4.569,15.035-6.815c0.591-0.264,0.82-0.595,0.945-1.211
		c0.696-3.413,1.455-6.813,2.177-10.22c0.225-1.063,0.257-2.148,0.014-3.207c-0.761-3.314-4.917-4.641-8.08-2.596
		c-1.868,1.208-2.7,3.075-3.168,5.134c-0.857,3.775-1.688,7.556-2.478,11.346c-0.161,0.77-0.442,1.039-1.257,1.033
		c-5.606-0.038-11.213-0.038-16.819-0.002c-0.93,0.006-1.058-0.241-0.844-1.114c1.309-5.346,2.542-10.71,3.835-16.06
		c0.799-3.306,3.141-5.36,5.921-6.991c3.63-2.13,7.649-3.092,11.77-3.573c7.104-0.83,14.191-0.76,21.189,0.942
		c2.601,0.633,5.107,1.515,7.352,3.033c3.696,2.5,5.016,5.824,4.071,10.16c-4.551,20.884-9.095,41.769-13.615,62.659
		c-0.194,0.898-0.485,1.248-1.483,1.238c-5.692-0.058-11.385-0.028-17.078-0.028C121.992,305.424,121.992,305.395,121.992,305.366z"
		/>
	<path fill="#002D62" d="M443.478,305.711c-3.149,0-6.298-0.039-9.446,0.023c-1.001,0.02-1.127-0.282-0.932-1.177
		c2.709-12.44,5.394-24.885,8.077-37.331c4.622-21.445,9.239-42.891,13.859-64.337c0.045-0.21,0.106-0.416,0.159-0.624
		c0.262-1.028,0.061-2.476,0.849-2.981c0.771-0.494,2.083-0.164,3.158-0.165c5.521-0.006,11.043,0.02,16.563-0.024
		c0.985-0.008,1.123,0.26,0.926,1.171c-5.406,24.927-10.792,49.859-16.171,74.792c-2.113,9.797-4.213,19.596-6.282,29.402
		c-0.201,0.953-0.525,1.313-1.572,1.283C449.605,305.654,446.54,305.711,443.478,305.711z"/>
	<path fill="#002D62" d="M182.481,233.213c1.871-1.791,3.622-3.247,5.708-4.22c4.2-1.958,8.577-2.539,13.088-1.393
		c4.067,1.034,6.193,4.166,5.845,8.387c-0.366,4.431-1.497,8.734-2.232,13.103c-0.292,1.739-0.674,3.463-0.984,5.2
		c-0.122,0.682-0.355,0.999-1.16,0.993c-5.564-0.044-11.129-0.033-16.694-0.014c-0.712,0.002-0.965-0.086-0.8-0.928
		c0.719-3.674,1.345-7.366,2.007-11.052c0.015-0.084,0.055-0.164,0.07-0.249c0.348-1.874-0.153-3.073-1.432-3.427
		c-1.372-0.38-2.852,0.429-3.342,2.137c-0.662,2.31-1.107,4.684-1.618,7.036c-3.599,16.563-7.192,33.127-10.787,49.691
		c-0.438,2.018-0.923,4.027-1.291,6.058c-0.14,0.773-0.456,0.938-1.183,0.935c-6.341-0.027-12.683-0.043-19.023,0.011
		c-1.069,0.009-0.976-0.451-0.821-1.16c1.424-6.512,2.85-13.024,4.258-19.54c3.934-18.208,7.861-36.417,11.786-54.627
		c0.443-2.057,0.429-2.06,2.485-2.059c4.788,0,9.577,0.023,14.365-0.019c0.885-0.008,1.194,0.25,1.245,1.136
		C182.045,230.45,182.278,231.682,182.481,233.213z"/>
	<path fill="#FEFEFE" d="M42.996,294.414c2.203-10.069,4.37-19.987,6.544-29.903c0.801-3.655,1.648-7.301,2.407-10.965
		c0.147-0.712,0.408-0.901,1.086-0.887c1.854,0.038,3.714-0.07,5.563,0.032c2.831,0.156,4.807,1.731,6.137,4.134
		c1.621,2.928,1.924,6.14,1.729,9.398c-0.383,6.373-1.738,12.517-4.62,18.262c-1.528,3.046-3.542,5.706-6.377,7.669
		c-2.181,1.51-4.573,2.342-7.262,2.268C46.526,294.377,44.846,294.414,42.996,294.414z"/>
	<path fill="#FEFEFE" d="M55.232,238.526c0.718-3.324,1.402-6.503,2.093-9.681c1.772-8.145,3.573-16.284,5.294-24.44
		c0.249-1.178,0.648-1.668,1.902-1.523c1.148,0.133,2.323,0.028,3.487,0.034c3.316,0.016,5.415,1.5,6.539,4.615
		c0.836,2.317,0.951,4.724,0.753,7.136c-0.491,5.965-1.717,11.741-4.886,16.931c-2.041,3.343-4.769,5.88-8.738,6.73
		C59.593,238.773,57.478,238.343,55.232,238.526z"/>
	<path fill="#FEFEFE" d="M402.014,295.191c-3.062,0.018-4.414-1.673-3.776-4.653c3.495-16.312,6.982-32.626,10.461-48.942
		c0.737-3.458,3.463-5.26,6.871-4.491c2.166,0.489,3.132,1.734,2.709,3.92c-0.834,4.305-1.802,8.583-2.724,12.871
		c-2.63,12.232-5.272,24.462-7.893,36.695C407.024,293.575,405.099,295.173,402.014,295.191z"/>
	<path fill="#FEFEFE" d="M464.24,299.124c0.191-5.926,6.764-11.036,12.473-9.696c3.278,0.769,5.245,3.499,4.943,6.86
		c-0.512,5.708-6.855,10.391-12.455,9.195C466.214,304.844,464.141,302.188,464.24,299.124z"/>
	<path fill="#FEFEFE" d="M223.092,295.188c-0.847-0.128-2.292,0.49-2.847-0.245c-0.412-0.545,0.277-1.93,0.491-2.938
		c3.819-17.963,7.644-35.925,11.449-53.891c0.176-0.829,0.439-1.255,1.408-1.165c1.197,0.111,2.413,0.025,3.62,0.029
		c3.386,0.012,4.87,1.877,4.162,5.197c-1.005,4.713-1.987,9.431-2.989,14.144c-2.236,10.518-4.477,21.035-6.721,31.552
		c-0.316,1.48-0.821,2.895-1.592,4.201c-1.227,2.079-2.906,3.384-5.48,3.122C224.166,295.151,223.731,295.188,223.092,295.188z"/>
	<path fill="#FEFEFE" d="M295.105,266.284c-1.385,6.471-2.712,12.681-4.044,18.891c-0.631,2.94-1.306,5.871-1.881,8.822
		c-0.15,0.77-0.444,0.991-1.18,0.948c-0.988-0.058-1.982,0.016-2.971-0.027c-2.312-0.1-3.67-1.201-4.226-3.44
		c-0.693-2.791-0.242-5.558,0.289-8.306c0.722-3.737,1.839-7.331,4.083-10.481c1.093-1.534,2.433-2.748,4.171-3.547
		C291.217,268.285,293.038,267.317,295.105,266.284z"/>
	<path fill="#FEFEFE" d="M127.715,266.049c-0.697,3.29-1.331,6.312-1.977,9.33c-1.285,6.011-2.596,12.016-3.843,18.035
		c-0.199,0.959-0.519,1.44-1.571,1.275c-0.589-0.092-1.204-0.016-1.807-0.018c-3.491-0.008-5.223-1.408-5.342-4.868
		c-0.212-6.191,1.147-12.038,4.589-17.288c1.032-1.575,2.398-2.778,4.145-3.576C123.78,268.084,125.597,267.11,127.715,266.049z"/>
	<path fill="#022E62" d="M473.289,298.08c1.155,1.692,2.258,3.307,3.381,4.952c-1.303,0.418-2.098,0.033-2.733-1.055
		c-0.711-1.217-1.59-2.336-2.559-3.732c-0.312,1.484-0.598,2.74-0.834,4.005c-0.116,0.622-0.311,0.976-1.061,0.945
		c-0.675-0.028-0.738-0.182-0.597-0.818c0.714-3.226,1.381-6.464,2.023-9.705c0.14-0.709,0.394-1.018,1.17-0.953
		c1.07,0.09,2.157-0.02,3.224,0.084c1.8,0.176,2.463,1.187,2.062,2.938C476.883,296.841,475.37,297.719,473.289,298.08z"/>
	<path fill="#FCFCFD" d="M473.916,292.957c0.655,0.092,1.672-0.128,1.854,0.974c0.179,1.084-0.217,2.033-1.247,2.598
		c-0.221,0.121-0.474,0.191-0.72,0.258c-2.012,0.549-2.226,0.353-1.791-1.615c0.074-0.335,0.121-0.675,0.194-1.01
		C472.48,292.914,472.482,292.915,473.916,292.957z"/>
</g>
</svg>
