<?xml version="1.0" encoding="utf-8"?>
<!-- Generator: Adobe Illustrator 22.1.0, SVG Export Plug-In . SVG Version: 6.00 Build 0)  -->
<svg version="1.1"
	 id="svg2" inkscape:version="0.48.2 r9819" sodipodi:docname="Aeropostale_logo2.svg" xmlns:cc="http://creativecommons.org/ns#" xmlns:dc="http://purl.org/dc/elements/1.1/" xmlns:inkscape="http://www.inkscape.org/namespaces/inkscape" xmlns:rdf="http://www.w3.org/1999/02/22-rdf-syntax-ns#" xmlns:sodipodi="http://sodipodi.sourceforge.net/DTD/sodipodi-0.dtd" xmlns:svg="http://www.w3.org/2000/svg"
	 xmlns="http://www.w3.org/2000/svg" xmlns:xlink="http://www.w3.org/1999/xlink" x="0px" y="0px" viewBox="0 0 500 500"
	 style="enable-background:new 0 0 500 500;" xml:space="preserve">
<style type="text/css">
	.st0{fill:#00A9E0;}
</style>
<sodipodi:namedview  bordercolor="#666666" borderopacity="1" gridtolerance="10" guidetolerance="10" id="namedview35" inkscape:current-layer="svg2" inkscape:cx="305.96738" inkscape:cy="101.65201" inkscape:pageopacity="0" inkscape:pageshadow="2" inkscape:window-height="1003" inkscape:window-maximized="1" inkscape:window-width="1680" inkscape:window-x="-4" inkscape:window-y="-4" inkscape:zoom="1.2764184" objecttolerance="10" pagecolor="#ffffff" showgrid="false">
	</sodipodi:namedview>
<g>
	<path class="st0" d="M59.2,235.5c-4.3-4.3-8.8-7.2-13.7-7.2c-13.2,0-21.1,10.3-21.1,21.5c0,11.2,7.9,21.5,21.1,21.5
		c5.6,0,10.5-2.5,13.9-6.7l11.9,12.8c-7.4,7.4-19.5,10.1-25.8,10.1c-21.5-0.2-38.8-15.3-38.8-37.7s17.3-37.7,39-37.7
		c9.2,0,19.1,3.4,26,11L59.2,235.5z"/>
	<path class="st0" d="M112.6,212.1c-11.4,0-22.4,3.4-30.5,11.4l9.4,9.4c4.7-4.5,11.7-7.4,19.1-7.4c9.6,0,16.4,4.7,16.4,13.5v2h-4.5
		c-18,0-45.1,1.6-45.1,24.9c0,14.1,12.8,21.5,26,21.5c9.6,0,18-3.6,22.9-11.7h0.4v9.9h16.2v-41.3
		C143.1,234.1,143.1,212.1,112.6,212.1z M126,257.5c0,10.1-5.8,16.4-18.2,16.4c-5.8,0-12.6-2.9-12.6-9.4c0-10.3,17.1-11,26.9-11h3.8
		V257.5z"/>
	<path class="st0" d="M155.6,213.9h18v11.4h0.2c3.8-8.3,11.9-13.2,21.1-13.2c2.2,0,4.3,0.4,6.5,1.1v17.3c-2.9-0.7-5.8-1.3-8.8-1.3
		c-16.8,0-19.3,14.1-19.3,18.2v38.4h-18v-71.8H155.6z"/>
	<path class="st0" d="M210.4,229.2v-15.3h14.8v-20.9h18v20.6h19.7V229h-19.7v31.4c0,7.2,2,11.7,10.1,11.7c3.1,0,7.4-0.7,9.6-2.2v15
		c-3.8,1.8-10.1,2.5-14.1,2.5c-19.1,0-23.3-8.5-23.3-25.4v-32.8H210.4z"/>
	<path class="st0" d="M342.3,251.2c0-24.9-13.7-39-33.7-39c-21.5,0-39,15-39,37.7c0,22.4,17.3,37.7,39,37.7c11.4,0,22-4,30.3-14.4
		l-12.8-9.6c-4.5,5.6-10.3,9.6-19.3,9.6c-10.1,0-18.2-6.5-19.3-17.1h54.8V251.2z M287.6,242.6c1.3-10.3,7.9-17.1,18.6-17.1
		c11.2,0,18.2,6.5,18.2,17.1H287.6z"/>
	<path class="st0" d="M352.4,213.9h18v11.4h0.2c3.8-8.3,11.9-13.2,21.3-13.2c2.2,0,4.3,0.4,6.5,1.1v17.3c-2.9-0.7-5.8-1.3-8.8-1.3
		c-16.8,0-19.3,14.1-19.3,18.2v38.4h-18V213.9z"/>
	<polygon class="st0" points="414.8,183.6 433,183.6 421.6,219.3 405.4,219.3 	"/>
	<path class="st0" d="M467.6,233.7c-3.4-4.7-7.9-7.4-14.1-7.4c-4.7,0-10.5,2.2-10.5,7.6c0,12.8,38.6,2.5,38.6,30.3
		c0,17.1-16.4,23.1-31,23.1c-11,0-20.6-2.9-27.8-11l11.9-11.2c4.7,5.2,9.4,8.8,17.1,8.8c5.2,0,11.9-2.5,11.9-8.3
		c0-14.8-38.6-3.1-38.6-30.5c0-15.9,14.4-23.1,28.7-23.1c9.6,0,19.7,2.9,25.6,11L467.6,233.7z"/>
	<g>
		<path class="st0" d="M490.7,214.8c-3.1,0-5.8,2.5-5.8,5.8c0,3.1,2.5,5.8,5.8,5.8c3.1,0,5.8-2.5,5.8-5.8
			C496.5,217.3,493.8,214.8,490.7,214.8z M490.7,225.4c-2.7,0-4.7-2-4.7-4.7s2-4.7,4.7-4.7c2.5,0,4.7,2,4.7,4.7
			S493.4,225.4,490.7,225.4z"/>
		<path class="st0" d="M491.8,220.9c0.9,0,1.6-0.7,1.6-1.8c0-1.3-0.7-2-2.2-2h-2.7v6.5h1.3v-2.7h0.9l1.6,2.7h1.3L491.8,220.9z
			 M489.8,220.2v-1.8h0.9c0.7,0,1.6,0,1.6,0.9c0,0.9-0.9,0.9-1.6,0.9H489.8z"/>
	</g>
</g>
</svg>
