<?xml version="1.0" encoding="utf-8"?>
<!-- Generator: Adobe Illustrator 24.0.1, SVG Export Plug-In . SVG Version: 6.00 Build 0)  -->
<svg version="1.1" id="Layer_1" xmlns="http://www.w3.org/2000/svg" xmlns:xlink="http://www.w3.org/1999/xlink" x="0px" y="0px"
	 viewBox="0 0 500 500" style="enable-background:new 0 0 500 500;" width="500" height="500" xml:space="preserve">
<style type="text/css">
	.st0{fill:#FDFDFD;}
	.st1{fill:#F3F9F9;}
	.st2{fill:#02A3C3;}
	.st3{fill:#0AA6C4;}
	.st4{fill:#ED5B28;}
	.st5{fill:#1D1E44;}
</style>
<g>
	<g>
		<path class="st0" d="M452.18,118.21c15.05,0,30.1,0.04,45.14-0.05c1.92-0.01,2.4,0.4,2.4,2.37c-0.06,86.37-0.06,172.73,0.02,259.1
			c0,2.4-0.8,2.46-2.72,2.46c-22.96-0.07-45.92-0.04-68.89-0.04c-141.53,0-283.07-0.01-424.6,0.08c-3.13,0-3.8-0.59-3.8-3.77
			c0.11-85.46,0.11-170.92,0.01-256.38c0-2.99,0.37-3.87,3.69-3.87c148.02,0.11,296.04,0.1,444.06,0.1c0,0.26,0,0.52,0,0.78v0
			c-13.22,0-26.44-0.03-39.66,0.04c-1.37,0.01-3.25-0.89-3.95,1.34c-4.16,0-8.32-0.01-12.49-0.01c-1.57-0.86-3.12-1.02-4.62,0.14
			c-2.85,3.34-5.7,6.68-9,10.55c21.11,0,41.2,0,61.29-0.02c0.75,0,1.83,0.01,2.19-0.44c2.73-3.37,6.4-5.94,8.48-9.86
			C450.57,119.89,451.38,119.05,452.18,118.21z M417.2,209.26c0,0-0.03-0.04-0.03-0.04c-0.2-0.23-0.4-0.47-0.6-0.7
			c-2.09-2.58-4.11-5.47-8-4.84c-2.33,0.38-4.63,0.24-6.94,0.24c-31.22,0.06-62.44,0.08-93.67,0.1c-1.79,0-3.51-0.2-4.96,1.45
			c-2.92,3.33-6.06,6.47-9.44,10.04c1.82,0,3.22,0,4.61,0c19.17,0.05,38.34,0.11,57.51,0.17c2.22,0.93,4.45,1.85,6.87,2.87
			c-1.6,1.43-3.51,0.14-4.58,1.61c-1.55,0.21-3.21-0.51-4.64,0.6c-20.26,0-40.53,0-60.79,0c-1.34-0.87-2.64-1.03-3.87,0.2
			c-2.93,3.12-5.85,6.23-8.78,9.35c-0.2,0.2-0.4,0.4-0.6,0.61c0,0-0.09,0.11-0.09,0.11c-0.2,0.32-0.39,0.64-0.59,0.96
			c0.5,0.22,1,0.43,1.5,0.65c0.3,0.54,0.56,0.46,0.78-0.06c0.26-0.01,0.52-0.02,0.78-0.03c0.11,0.57,0.07,1.38,0.94,1.2
			c0.27-0.05,0.41-0.78,0.61-1.19c16.52-0.03,33.05-0.06,49.57-0.08c14.98-0.01,14.98,0,25.08-11.34c0.03-0.33,0.06-0.66,0.09-0.99
			c1.41,0.48,2.83,0.95,4.24,1.43l-0.19-0.1c0.26,0.31,0.52,0.61,0.77,0.92l-0.08-0.07c0.29,0.29,0.59,0.58,0.88,0.86
			c0.4,0.46,0.79,0.93,1.19,1.39c-0.55,0.29-1.86-0.08-1.42,1.08c0.55,1.46,1.77,1.59,3.06,0.73c3.39,5.55,8.49,6.28,14.57,6.12
			c14.46-0.39,28.94-0.12,43.41-0.12c3.68,0,7.37,0,11.44,0c-1.89-3.9-5.29-5.9-7.18-9.08c1.48-1.65-0.5-3.76-0.73-3.62
			c-1.96,1.22-4.8-2.76-6.11,1.05c-18.43,0-36.86,0-55.29,0c0.11-2.1-2.64-2.89-2.33-5.08c19.17-0.07,38.34-0.13,57.51-0.2
			c1.26-1.15,0.37-1.38-0.67-1.54c-0.31-0.37-0.63-0.75-0.94-1.12c0.16-1.2-0.25-1.93-1.57-1.92c-0.21-0.26-0.42-0.53-0.64-0.79
			C417.67,209.82,417.44,209.54,417.2,209.26z M400.71,179.65c0.29-0.24,0.58-0.47,0.87-0.71c1.17-3.12,3.95-5.25,5.41-8.27
			c-32.28,0-64.33,0-97.17,0c3.05,3.31,5.54,6.05,8.08,8.76c1,1.06,1.58,2.72,3.48,2.58c0.26,0.53,0.52,1.05,0.78,1.58
			c-1.17,0.13-2.54-0.42-3.4,1c0.61,0.93,3.11,0.63,1.85,2.77c-0.38,0.31-0.76,0.63-1.15,0.94c-0.17,0.08-0.3,0.2-0.38,0.38
			c-0.1,0.27-0.3,0.42-0.58,0.44c-0.55,0.14-0.84,0.5-0.92,1.06c-2.44,2.47-4.87,4.94-7.31,7.42c-0.59,0.12-1.33,0.25-0.96,1.05
			c0.26,0.56,0.79,0.28,1.12-0.15c0.79,0.03,1.58,0.07,2.37,0.1c0.08,0.49,0.18,1.04,0.79,1.04c0.61,0,0.71-0.55,0.79-1.04
			c0.77,0,1.55,0.01,2.32,0.01c0.89,2.32,2.9,1.28,4.37,1.28c27.61,0.07,55.22,0.05,82.84,0.05c-1.28,1.34-2.94,0.75-4.43,0.75
			c-26.72,0.04-53.44,0.02-80.16,0.05c-1.37,0-2.81-0.38-4.92,0.75c2.19,0,3.59,0,4.98,0c27.5,0,55-0.01,82.5,0.02
			c2.63,0,5.74,1.16,5.88-3.24l-0.06,0.04c0.61,0,1.28,0.25,2.05-0.65c-0.87,0-1.48,0-2.08,0c-1.81-1.47-3.51-3.03-4.64-5.1
			c-0.08-1.21-0.77-1.82-1.93-1.97c-1.99-2.79-4.67-3.32-8.02-3.3c-23.37,0.11-46.74,0-70.12-0.04c-0.26-1.22-0.53-2.43-0.79-3.65
			c23.89,0,47.79,0.01,71.68-0.02c1.72,0,3.75,0.59,4.65-1.73c0.52-0.46,1.04-0.91,1.56-1.37c0.23-0.29,0.46-0.58,0.7-0.86
			C400.75,179.6,400.71,179.65,400.71,179.65z M385.16,247.43l0.04,0.05c0.07,0.7,0.28,1.28,1.1,1.4c0.44,0.1,0.88,0.21,1.31,0.31
			c2.38,2.69,5.14,0.49,7.7,0.51c14.77,0.1,29.54-0.14,44.3,0.2c3.08,0.07,7.14-2.55,9.46,1.95c0.05,0.1,0.63,0.12,0.71,0
			c0.85-1.25,2.67-1.77,3.2-2.76c0.77-1.44-1.64-1.5-2.37-2.47c-0.75-0.98-1.86-0.72-2.87-0.79c-1.57-1.78-3.33-3.42-4.26-5.68
			c-0.06-0.67-0.41-1.07-1.08-1.2c-0.37-0.33-0.74-0.65-1.1-0.98c-1.33-1.2-2.96-0.67-4.45-0.67c-18.6-0.04-37.19-0.01-55.79-0.05
			c-1.19,0-3.07,0.96-2.79-1.84c0.1-1.01-1.16-1.7-2.21-0.48c-1.94,2.24-1.12,3.42,1.52,3.88c2.13,1.73,3.85,3.83,5.39,6.09
			c-0.08,1.08,0.39,1.68,1.5,1.72l-0.01-0.01C384.69,246.88,384.92,247.16,385.16,247.43z M227.15,188.09l-0.1,0.11
			c-0.87,0.06-1.39,0.49-1.49,1.38c-1.25,2.44-3.63,3.84-5.35,5.83c-0.85,0.98-2.87,1.18-2.34,3.18c1.02,1.13,2.04,2.53,3.09,0.02
			c0.77,0,1.54-0.01,2.32-0.01c0.48,1.84,2.01,1.31,3.2,1.31c18.63,0.03,37.26,0.03,55.89,0c1.19,0,2.71,0.54,3.22-1.28
			c1.71-0.01,2.75-1.16,3.84-2.25c1.99-1.98,4.02-3.91,6.04-5.87c0.32-0.29,0.63-0.58,0.95-0.87c0.19-0.23,0.37-0.46,0.56-0.68
			c1.29-0.54,1.45-1.71,0.66-2.46c-0.9-0.86-1.84,0.18-2.68,0.72c-1.42,0.05-2.85,0.13-4.27,0.13c-20.74,0.02-41.48,0.03-62.21,0.05
			C228.03,187.63,227.59,187.86,227.15,188.09z M87.79,187.52c-0.08-0.4-0.25-0.64-0.69-0.37c-17.92,0.4-35.84,0.27-53.76-0.01
			c-0.52-0.93-1.05-1.85-1.57-2.78c0.98-0.56,2.29-0.79,2.34-2.29c17.39,0,34.78,0,52.17-0.01c0.63,0.81,1.54,0.79,2.41,0.73
			c1.05-0.08,2.44,0.44,2.86-1.07c0.19-0.66,0.19-1.66-0.18-2.13c-0.81-1.02-1.81,0.3-2.76,0.1c-0.04-0.5-0.09-1-0.13-1.5
			c1.25-0.98,1.29-1.8-0.32-2.4c-0.68-5.42-0.68-5.42-6.3-5.42c-13.7,0-27.39-0.01-41.09,0.01c-2.82,0-6.52-0.93-8.25,0.48
			c-2.07,1.68-0.44,5.55-0.77,8.46c-0.04,0.38-0.07,0.77-0.11,1.15c-2.79,1.39,0.18,2.6,0.13,3.9c-1.39,1.07,0.28,2.11,0.02,3.17
			c0.44,3.69-0.93,7.5,0.81,11.09c1.05,1.11,2.9-0.12,3.84,1.3c-0.26,0.2-1.07-0.35-0.82,0.58c0.27-0.19,0.54-0.39,0.82-0.58
			c9.03,0,18.07-0.03,27.1,0.02c2.23,0.01,4.35-0.22,6.33-1.31c0.84,0.07,1.67,0.14,2.51,0.21c0.42,0.04,0.83,0.08,1.25,0.12
			c4.21-0.56,8.42-0.48,12.64-0.04c0.31,0.86,1.01,1.22,1.72,0.76c0.65-0.42,1.44-1.09,0.65-2.1c-0.04-0.72-0.08-1.43-0.12-2.15
			c0.07-0.61,1.25-1.35-0.22-1.77c-0.06-0.53-0.12-1.06-0.18-1.6c0.69-1.59,1.04-3.15-0.32-4.59L87.79,187.52z M237.21,247.23
			l-0.04,0c1.21,0.41,2.26,2.7,3.49,1.16c0.92-1.16-0.96-1.98-2-2.63c1.97-2.73,5.14-4.43,6.93-7.74c-1.04-0.05-1.68-0.12-2.32-0.12
			c-67.76,0.02-135.53,0.04-203.29,0.06c-8.1,0-8.09,0-8.2,7.88c-0.01,0.77-0.09,1.55-0.14,2.32c-0.84,0.16-1.54,0.48-1.22,1.52
			c0.25,0.81,0.94,0.74,1.6,0.62c4.72-0.84,9.49-0.57,14.24-0.57c59.12-0.02,118.25-0.03,177.37,0.05c2.45,0,5.51-1.47,7.26,1.89
			c0.26,0.49,1.38,0.32,1.53-0.45c0.3-1.45,1.8-1.34,2.53-2.18c0.21-0.12,0.43-0.18,0.67-0.16
			C236.49,248.68,237.07,248.17,237.21,247.23z M88.54,147.65l-0.1,0.1c1.21-2.41,1.92-4.78-0.41-6.98c0-1.15,0.01-2.3,0.01-3.44
			c0.23-0.01,0.46-0.03,0.69-0.04c-0.24-0.02-0.48-0.03-0.72-0.05c-1.38-1.04-2.99-0.61-4.5-0.61c-13.57,0-27.14-0.01-40.71,0.14
			c-3.56,0.04-8.12-1.62-10.41,0.85c-2.08,2.23-0.39,6.67-0.62,10.12c0.19,2.4,2.16,3.07,3.55,2.13c2.93-1.98,5.99-1.01,8.99-1.3
			c3.57-0.35,7.22,0.68,10.75-0.57c10.41,0,20.82,0,31.23,0.01C87.19,148.74,87.97,148.84,88.54,147.65z M269.21,154.01
			c-0.16-0.23-0.27-0.59-0.65-0.26c-0.65,0.02-1.3,0.04-1.94,0.05c-1.41-0.1-2.82-0.28-4.24-0.28c-16.21-0.02-32.41-0.02-48.62-0.02
			c-4.86,0-9.73,0-15.13,0c3.42,3.22,6.6,6.01,9.53,9.05c1.67,1.74,3.39,2.38,5.79,2.37c20.87-0.08,41.75-0.03,62.62-0.05
			c1.08,0,2.33,0.47,3.44-0.88c-2.87-3.27-5.91-6.36-9.25-9.17C270.5,154.08,269.85,154.06,269.21,154.01z M31.78,120.61
			c0.04,0.49,0.08,0.98,0.13,1.48c0,2.09,0,4.17,0,6.26c-0.13,0.25-0.14,0.5-0.02,0.75c0.04,0.52,0.09,1.04,0.13,1.55
			c1.12,0.97,2.48,0.49,3.7,0.49c68.96,0.01,137.93-0.01,206.89-0.06c0.8,0,1.8,0.64,2.49-0.43c-0.34-1.23-1.31-1.82-2.33-2.38
			c-2.35-2.56-4.7-5.11-7.05-7.67c-0.72-2.77-2.99-1.54-4.52-1.54c-63.46-0.07-126.93-0.06-190.39-0.06c-0.78,0-1.71-0.27-2.3,0.06
			C36.39,120.23,33.58,118.25,31.78,120.61z M87.5,153.35c-18.18,0.37-36.35-0.01-54.52-0.32c-0.05-0.19-0.1-0.39-0.14-0.58
			c0.02,0.19,0.03,0.38,0.05,0.56c-2.39,2.24-0.6,5.09-1.1,7.62c-0.65,3.26,0.53,4.37,4.09,4.34c17.05-0.17,34.11-0.01,51.16,0.04
			c0.38,1.11,0.77,2.22,1.2,3.47c1.78-1.47,0.07-2.61,0.28-3.77c0.01-0.71,0.02-1.42,0.04-2.13
			C90.27,161.09,89.52,154.51,87.5,153.35z M88.52,215.41c0.04,0.09,0.07,0.2,0.13,0.27c0.04,0.05,0.13,0.05,0.2,0.07
			c-0.11-0.11-0.23-0.22-0.34-0.33c0.05-2.05,0.1-4.1,0.15-6.15c0.61-0.11,1.26-0.2,1.36-0.99c0.13-1-0.57-1.23-1.35-1.35
			c0-0.52,0.01-1.03,0.01-1.55c0.38-0.24,1.09-0.49,1.08-0.73c-0.02-0.87-0.8-0.71-1.39-0.74c-0.44-0.04-0.89-0.07-1.33-0.11
			c-0.11-0.56-0.11-1.32-0.94-1.15c-0.27,0.06-0.42,0.73-0.62,1.13c-17.83,0.04-35.66,0.09-53.5,0.13c-0.46,0-1.12-0.22-1.18,0.4
			c-0.03,0.32,0.54,0.7,0.84,1.05c-0.01,0.53-0.01,1.05-0.02,1.58c-1.38,0.77-1.38,1.54,0.01,2.31c0.06,2.04,0.12,4.08,0.18,6.13
			c-0.26,0.74-0.52,1.48-0.78,2.21c0.82-1.62,3.21-0.1,3.86-1.93c1.81-0.05,3.62-0.13,5.44-0.13
			C56.39,215.49,72.45,215.45,88.52,215.41z M42.62,220.72c-3.51-1.17-7.23-0.43-10.83-1.17c-1.87-0.39,0.17,0.92,0.01,1.45
			c-0.02,2.58,0.14,5.18-0.1,7.74c-0.27,2.86,0.67,3.74,3.62,3.71c13.95-0.12,27.9,0.04,41.85,0.01c3.59-0.01,8.22,1.51,10.5-0.6
			c2.52-2.34,0.49-7.09,0.88-10.76c-0.57-1.2-1.36-1.12-2.25-0.37c-12.99,0.01-25.99,0.01-38.98,0.02
			c-0.24-0.35-0.49-0.36-0.74-0.02C45.25,220.73,43.94,220.73,42.62,220.72z M372.09,136.93c-0.74-0.04-2.01-0.36-2.15-0.09
			c-1.57,3.05-4.52,4.39-7.13,6.21c-1.63,1.13-1.85,2.54,0.6,3.18c-0.08,0.27-0.16,0.55-0.24,0.82c-0.12,0.31-0.24,0.61-0.36,0.92
			c0.19-0.02,0.38-0.04,0.57-0.06c0.56,0.05,1.11,0.1,1.67,0.15c0.74,0.17,1.47,0.48,2.21,0.48c13.43,0.03,26.85,0.02,40.28,0.02
			c0.9,0,1.82,0.11,2.57-0.57c0.8-0.01,1.6-0.02,2.4-0.02c0.51,0.66,1.02,0.64,1.51-0.03c2.87-0.01,5.74-0.01,8.61-0.02
			c1.55,0.08,3.15,2.55,4.65-0.09l0.17-0.17l0.24,0.03c0.63-0.13,0.96-0.52,1.03-1.15c1.53-3.52,5-5.8,6.51-9.93
			c-3.29,0-6.24-0.01-9.19,0C408.05,136.71,390.07,136.82,372.09,136.93z M393.8,254.45c-0.83-1-1.26-0.69-1.44,0.44
			c1.58,1.88,3.45,3.58,4.69,5.67c2.49,4.19,6.01,5.17,10.69,5.11c17.23-0.24,34.47-0.08,51.71-0.12c1.33,0,2.79,0.48,4.2-0.67
			c-1.94-2.17-4.02-4.14-5.67-6.42c-2.29-3.17-5.18-4.13-8.99-3.88c-4.65,0.3-9.33,0.09-13.99,0.07
			C421.25,254.58,407.53,254.51,393.8,254.45z M339.89,238.91c0.39-0.3,1.07-0.57,1.11-0.92c0.13-1.06-1-1.27-1.55-1.21
			c-1.36,0.16-2.67,0.67-4.01,1.04c-1.07,0.01-2.13,0.01-3.2,0.02c-0.75-0.68-1.68-0.56-2.58-0.56c-17.86,0-35.73,0-53.59,0
			c-1.01,0-2.1-0.22-2.92,0.65c-3.3,3.48-6.61,6.96-10.53,11.1c2.09,0,3.21,0,4.33,0c19.16,0,38.33-0.41,57.46,0.19
			C332.73,249.48,336.05,244.29,339.89,238.91z M320.99,119.88c-0.93-0.08-1.89-0.33-2.68,0.45c-0.53,0.01-1.06,0.02-1.59,0.03
			c-0.45-1.87-1.98-1.35-3.17-1.35c-15.93,0.04-31.85,0.14-47.78,0.13c-1.36,0-2.26,0.2-2.74,1.51c2.12,2.42,4.39,4.73,6.33,7.29
			c2.01,2.66,4.48,3.29,7.7,3.26c20.06-0.14,40.12-0.06,60.19-0.1c1.23,0,2.54,0.43,4.24-0.6c-4.21-3.4-6.68-8.28-11.68-10.56
			c-2.3-1.3-4.6-1.65-6.92-0.03C322.25,119.9,321.62,119.89,320.99,119.88z M198.41,148.01c2.05,0.89,4.1,0.89,6.14,0
			c16.63-0.01,33.27-0.02,49.9-0.03c2.87,0.8,5.72,1.3,8.5-0.29c-2.15-2.24-4.42-4.36-6.41-6.73c-2.8-3.35-6.16-4.47-10.55-4.43
			c-20.35,0.21-40.71,0.09-61.06,0.13c-1.16,0-2.54-0.6-3.63,0.87c4.46,3.19,7.39,8.02,12.37,10.5c0.08,0.48,0.18,1.02,0.78,1.03
			c0.6,0.01,0.71-0.53,0.79-1.02C196.32,148.02,197.37,148.02,198.41,148.01z M292.57,147.93c20.25,0,40.5,0,60.75,0
			c0.25,0.37,0.51,0.37,0.76,0c1.06-0.12,2.12-0.24,3.18-0.36c0.18-0.31,0.37-0.62,0.55-0.92c-2.12-1.88-4.37-3.64-6.34-5.66
			c-3.14-3.22-6.61-4.83-11.31-4.76c-18.63,0.28-37.27,0.2-55.91,0.29c-1.5,0.01-3.05-0.37-5.14,0.57
			c3.31,3.71,6.45,7.23,9.59,10.74c0.46,0.74,0.97,0.79,1.53,0.1c0.53,0,1.06,0,1.59-0.01C292.06,148.29,292.31,148.3,292.57,147.93
			z M234.2,215.67c8.82-0.01,17.64-0.03,26.46-0.04c2.34,2.75,4.67,1.51,7-0.03c0.77-0.06,1.55-0.12,2.32-0.18
			c0.18,0.11,0.37,0.22,0.55,0.33c0.09-0.33,0.18-0.66,0.28-0.99c2.01-2.66,4.43-4.91,6.95-7.07c1.24,0.49,2.8,1.63,3.61-0.03
			c0.59-1.2,1.27-3.3-1.32-3.8c-19.06,0.06-38.12,0.42-57.17,0.02c-7.75-0.16-14.55,0.62-19.65,7.04c-1.41-0.8-2.86-1.31-4,0.33
			c-0.92,1.33-1.7,2.8-0.04,4.21c2.33,0.07,4.65,0.14,6.98,0.21c-0.21,2.08,0.53,3.01,2.81,2.98c7.48-0.11,14.96-0.11,22.43,0
			C233.67,218.68,234.41,217.74,234.2,215.67z M194.5,220.81c-5.78,2.14-8.69,7.58-13.77,11.18c0.95,0.26,1.18,0.38,1.41,0.38
			c22.78,0.02,45.57,0.02,68.35,0.06c1.27,0,2.22-0.38,3.09-1.27c3.36-3.39,6.77-6.74,10.16-10.11c-1.06-2.93-2.31-3.42-3.84-0.3
			c-19.74,0.01-39.48,0.01-59.22,0.02c-0.77-0.79-1.53-0.79-2.28,0.03c-0.53,0-1.07,0-1.6,0
			C196.03,219.98,195.26,219.98,194.5,220.81z M362.67,153.14c-22.46,0-44.92,0-68.4,0c3.31,3.82,5.9,6.69,8.32,9.68
			c1.26,1.56,2.65,2.08,4.65,2.08c33.71-0.05,67.43-0.01,101.14,0c1.02,0,2.44,0.24,3-0.31c3.5-3.46,6.8-7.12,10.86-11.45
			c-18.6,0-35.97,0-53.34,0c1.34-1.21,2.97-0.66,4.47-0.66c17.44,0,34.89,0.17,53.41-1.23c-3.54-0.45-5.93-1.09-8.52-1.21
			c-4.56-0.22-8.97,0.97-13.5,0.9c-9.97-0.15-19.95,0.06-29.92-0.1C370.58,150.78,366.48,151.08,362.67,153.14z M221.4,262.81
			c1.2,0.18,1.94,2.27,3.36,1.14c1.68-1.34-0.97-2.05-0.75-3.27c0.02-0.12-0.05-0.25-0.07-0.38c0.19-0.2,0.37-0.39,0.56-0.59
			c1.32-0.02,2.79,1.59,3.91-0.55c0.64-1.23,1.9-2.27-0.06-3.37c-0.01-0.24,0.07-0.44,0.26-0.6c0.14-0.16,0.28-0.32,0.41-0.48
			c-0.21-0.06-0.42-0.13-0.63-0.19c-0.16,0.13-0.3,0.11-0.42-0.06c-0.14-2.1-1.55-2.4-3.27-2.4c-18.03,0.01-36.05,0.02-54.08-0.01
			c-1.76,0-2.75,0.5-2.59,2.41c-0.9,0.06-1.8,0.16-2.7,0.16c-42.32,0.01-84.64,0.01-126.96,0c-0.9,0-1.8-0.12-2.7-0.19
			c-0.09-0.31-0.15-0.87-0.27-0.88c-0.66-0.05-0.4,0.54-0.51,0.88c-0.26,0.01-0.52,0.02-0.79,0.03c-0.26-0.87,0.62-2.16-0.76-2.58
			c-0.5-0.15-1.42,0.12-1.74,0.52c-0.9,1.14,0.88,1.25,0.98,2.07c-1.7,2.07-0.38,4.49-0.8,6.71c-0.59,3.14,0.87,3.76,3.81,3.76
			c59.86-0.03,119.72,0.03,179.58,0.16C217.67,265.14,219.68,264.56,221.4,262.81z M377.6,342.68c-0.16-1.68-0.14-3.7-0.38-3.73
			c-2.54-0.33-5.12-0.42-7.69-0.41c-1.93,0.01-1.61,1.83-1.84,2.93c-2.1,9.73-4.15,19.47-6.1,29.23c-1.4,6.95-1.33,6.85,5.92,6.92
			c2.49,0.02,3.32-0.89,3.77-3.17c1.36-6.84,2.88-13.65,4.47-20.45c0.76-3.26,2.46-6,5.64-7.48c2.06-0.95,4.33-1.47,6.34-0.14
			c2.07,1.38,1.56,3.73,1.2,5.72c-1.11,5.97-2.33,11.92-3.63,17.85c-1.71,7.82-1.77,7.71,6.14,7.62c2.27-0.03,3.09-0.72,3.44-2.97
			c0.77-4.85,1.82-9.65,2.93-14.44c0.81-3.51,1.45-7.13,3.47-10.23c2.14-3.29,6.27-5.11,8.91-3.93c4.07,1.82,2.11,5.22,1.99,8.13
			c-0.01,0.12-0.09,0.24-0.12,0.37c-1.36,6.45-2.78,12.89-4.03,19.36c-0.22,1.15-1.33,3.21,0.77,3.49c2.79,0.38,5.84,0.58,8.45-0.21
			c1.65-0.5,1.13-3.41,1.67-5.22c0.07-0.25,0.15-0.5,0.2-0.75c1.39-8.27,4.19-16.31,4.4-24.78c0.11-4.42-1.58-6.73-5.75-8.11
			c-4.77-1.58-9.33-0.68-13.32,2.03c-2.74,1.86-4.84,3.79-7.06-0.43c-0.4-0.75-1.7-1.11-2.66-1.45
			C388.38,336.19,383.11,338.73,377.6,342.68z M57.11,373.02c-3.22,6.49,1.14,4.73,3.84,5.17c3.88,0.63,5.07-1.19,5.74-4.66
			c2.8-14.32,5.83-28.59,8.78-42.88c1.42-6.87,1.42-6.7-5.63-6.89c-2.89-0.08-3.77,0.96-4.21,3.59c-0.84,5.02-2.04,9.99-3.12,15.12
			c-7.78-5.64-14.03-5.96-20.88-1.3c-7.65,5.2-12.86,19.03-10.53,27.95c1.79,6.86,7.66,10.63,14.69,9.57
			C49.78,378.09,53,376,57.11,373.02z M122.17,349.2c2.61,0.43,4.94,0.67,7.18,1.25c1.41,0.37,2.12,0.01,2.86-1.12
			c2.5-3.81,6.3-3.57,10.1-3.02c1.81,0.26,2.54,1.52,2.59,3.32c0.04,1.71-0.24,3-2.24,3.4c-3.8,0.75-7.58,1.62-11.36,2.44
			c-5.18,1.13-9.93,2.9-12.74,7.89c-3.16,5.63-2.01,11.69,2.91,14.2c2.59,1.32,5.46,1.33,8.34,1.17c4.09-0.22,7.37-2.56,11.24-4.48
			c-0.22,2.98,0.75,4.25,3.52,3.88c2.16-0.29,4.39-0.07,6.55-0.32c0.76-0.09,0.39-1.13,0.27-1.69c-0.85-3.93,0.19-7.67,0.86-11.5
			c1.05-5.97,3.03-11.76,3.28-17.88c0.17-3.96-1.75-6.41-5.28-7.63c-1.81-0.63-3.77-0.99-5.68-1.11
			C134.19,337.38,126.34,339.54,122.17,349.2z M99.65,361.59c1.17,0,2.34,0.08,3.5-0.02c3.17-0.26,7.5,1.5,9.24-0.76
			c2.38-3.06,1.61-7.7,1.14-11.71c-0.59-5.11-3.44-8.69-8.3-10.23c-5.51-1.75-11-1.3-16.12,1.61c-8.87,5.04-12.3,13.27-12.99,22.91
			c-0.36,5.09,0.67,9.92,5.33,12.97c8.5,5.57,23.5,1.72,28.41-7.19c0.38-0.69,1.46-1.69-0.09-2.08c-2.62-0.65-5.31-1.15-7.99-1.41
			c-1.76-0.17-1.92,1.87-2.89,2.82c-2.12,2.07-4.51,2.98-7.4,2.34c-2.89-0.63-4.17-2.7-4.85-5.41c-0.65-2.59-0.13-4,2.89-3.89
			C92.91,361.68,96.28,361.58,99.65,361.59z M215.43,366.8c-1.3-0.17-2.38-0.14-3.34-0.47c-3.48-1.17-6.45-1.6-8.97,2.21
			c-1.75,2.65-5,2.61-7.82,1.6c-2.35-0.84-3.59-2.87-3.93-5.37c-0.34-2.48,0.28-3.81,3.26-3.72c6.73,0.2,13.48,0.09,20.22,0.04
			c1.17-0.01,2.78,0.57,3.08-1.39c0.94-6.06,1.99-12.26-2.4-17.46c-4.14-4.89-9.86-5.36-15.68-4.2c-10.02,2-17.41,10.94-18.7,22.21
			c-0.7,6.17-0.47,12.17,5.4,15.93C193.82,380.83,210.11,379.52,215.43,366.8z M462.96,367.02c-5.02-1.18-9.69-3.16-13.54,2.37
			c-1.49,2.13-4.8,1.69-7.26,0.49c-2.46-1.21-3.23-3.48-3.35-6.12c-0.09-2.06,0.72-2.7,2.72-2.67c5.7,0.09,11.41,0.03,17.12,0.03
			c6.98,0,6.98,0,7.4-7.07c0.73-12.31-7.37-18.93-19.42-15.86c-12.62,3.22-21.4,18.73-17.65,31.21c1.06,3.54,3.2,6.22,6.55,7.77
			C445.18,381.62,458,376.96,462.96,367.02z M353.89,366.94c-1.47-0.29-2.62-0.45-3.75-0.74c-3.31-0.85-6.23-1.62-8.6,2.33
			c-1.58,2.62-4.99,2.66-7.82,1.65c-2.53-0.9-3.63-3.1-3.88-5.77c-0.22-2.34,0.29-3.49,3.08-3.37c5.69,0.24,11.41,0.11,17.11,0.05
			c7.74-0.08,5.72,0.94,6.93-6.35c0.02-0.13,0.04-0.26,0.05-0.39c1.07-11.85-7.05-18.87-18.78-16.39
			c-15.1,3.19-20.31,19.62-18.68,29.61c0.66,4.03,2.47,7.52,6.35,9.22C334.16,380.43,348.13,379.23,353.89,366.94z M240.15,365.75
			c1.58,3.45,3.04,6.58,4.43,9.75c0.56,1.28,1.19,2.13,2.82,2.06c2.85-0.12,5.7-0.06,8.55,0.01c2.02,0.05,2.15-0.69,1.33-2.32
			c-2.41-4.73-4.45-9.67-7.16-14.22c-1.83-3.08-1.21-4.97,1.1-7.3c4.69-4.72,9.12-9.7,13.86-14.79c-7.56-1.45-13.86-0.93-17.87,6.05
			c-0.38,0.66-1.05,1.15-1.48,1.79c-1.7,2.48-2.98,1.66-3.44-0.68c-1.35-6.83-5.61-8.8-11.98-7.63c-0.5,0.09-1.04,0.06-1.55,0.01
			c-2.3-0.2-2.33,0.8-1.45,2.5c2.27,4.36,4.23,8.9,6.8,13.07c1.66,2.69,1.03,4.27-0.9,6.31c-5.11,5.41-10.04,10.99-15.63,17.15
			c3.37,0,5.92-0.2,8.44,0.05c2.89,0.28,4.83-0.71,6.56-3.03C234.82,371.55,237.45,368.86,240.15,365.75z M217.07,170.37
			c2.77,2.84,5.66,4.71,6.94,7.36c1.97,4.08,5.07,3.98,8.58,4.05c20.67,0.42,41.36-1.02,62.01,0.88c0.99,0.09,1.91-0.11,2.33-0.99
			c0.42-0.88-0.5-1.37-1.02-1.89c-2.2-2.19-4.64-4.19-6.6-6.57c-1.95-2.37-4.19-2.91-7.1-2.89c-17.1,0.11-34.2,0.05-51.3,0.05
			C226.54,170.37,222.17,170.37,217.07,170.37z M260.24,315.62c-0.02-7.07-3.8-12.46-7.92-17.7c-0.56-0.72-1.35-1.03-1.88-0.1
			c-2.5,4.39-3.6,1.25-5.03-0.84c-1.13-1.64-2.17-2.46-3.56,0.08c-1.82,3.31-4.63,5.88-7.42,8.41c-5.39,4.87-6.21,10.07-2.55,16.29
			c1.83,3.11,3.92,6.09,5.57,9.29c0.88,1.71,1.63,1.37,2.58,0.42c2.6-2.61,3.83-1.1,4.78,1.49c0.38,1.03,0.43,2.45,2.26,1.75
			C252.69,332.57,260.04,321.97,260.24,315.62z M325.52,256.23c-0.3-0.46-0.6-0.92-0.9-1.38c-0.47-0.08-0.95-0.22-1.42-0.22
			c-21.36,0.14-42.72,0.28-64.08,0.45c-0.74,0.01-1.76-0.04-2.19,0.39c-3.04,3.04-5.95,6.19-9.45,9.88
			c22.83,0,44.57-0.01,66.31,0.02c1.14,0,1.91-0.47,2.72-1.2C319.48,261.49,322.51,258.87,325.52,256.23z M286.39,324.72
			c-2.6,1.28-4.29,2.18-6.04,2.96c-3.65,1.64-6.87,3.53-6.83,8.27c0.02,2.08-1.24,2.88-3.31,2.56c-1.38-0.21-2.33,0.39-2.3,1.88
			c0.04,2.14-1.8,4.1-0.58,6.32c0.09,0.17,0.46,0.28,0.68,0.26c4.01-0.47,2.81,2.12,2.43,4.16c-1.18,6.34-2.95,12.56-3.67,18.99
			c-0.82,7.38,3.27,8.2,8.09,8.4c1.03,0.04,2.07-0.07,3.1-0.16c5.34-0.49,5.57-0.86,6.01-6.29c0.19-2.26-0.23-3.03-2.6-2.49
			c-3.45,0.78-4.04-1.13-3.43-4c0.89-4.17,1.98-8.31,2.54-12.53c0.54-3.97,1.28-6.51,6.44-6.28c4.03,0.18,2.59-4.34,3.16-6.76
			c0.57-2.43-1.96-1.5-3.02-1.43c-2.95,0.19-3.58-0.86-2.82-3.6C285.1,331.91,285.57,328.74,286.39,324.72z M159.59,378.11
			c3.08,0,5.54-0.08,7.98,0.03c1.79,0.08,2.62-0.33,3.03-2.38c2.95-14.92,6.11-29.8,9.16-44.7c1.61-7.88,1.57-7.84-6.83-7.26
			c-1.58,0.11-2.19,0.57-2.52,2.16C166.88,343.24,163.26,360.5,159.59,378.11z M307.01,342.4c-0.93-1.39,0.33-3.28-0.81-3.5
			c-2.5-0.48-5.15-0.51-7.7-0.3c-2.04,0.17-1.76,2.27-2.06,3.69c-2.01,9.48-4.03,18.96-5.92,28.46c-1.64,8.29-2.29,6.47,5.34,6.82
			c2.81,0.13,4-0.61,4.56-3.61c1.26-6.85,2.41-13.77,4.83-20.35c2.08-5.67,5.07-7.31,10.69-5.71c1.61,0.46,2.1-0.08,2.57-1.25
			c1.02-2.53,3.72-4.37,3.21-7.49c-0.06-0.34-1.11-0.53-1.7-0.77C314.78,336.28,310.75,338.45,307.01,342.4z M284.53,201.38
			c0.05-0.13,0.1-0.26,0.16-0.39c-20.9,0-41.8,0-62.7,0c0,0.13,0,0.26,0,0.39C242.84,201.38,263.68,201.38,284.53,201.38z
			 M38.54,151.28c0,0.26,0.01,0.52,0.01,0.78c5.08,0,10.16,0,15.24,0c0-0.26,0-0.52,0-0.78C48.7,151.28,43.62,151.28,38.54,151.28z
			 M90.79,193.59c1.17-1.09,1.06-2.02,0.56-3.18C90.49,191.32,89.9,192.09,90.79,193.59z M428.68,217.62c0.11-0.59-0.15-1-0.68-1.16
			c-0.5-0.15-1.07-0.1-1.1,0.57c-0.01,0.27,0.33,0.63,0.6,0.81C427.92,218.12,428.41,218.26,428.68,217.62z M361.63,225.83
			c-0.07-0.54-0.31-0.85-0.71-0.64c-0.25,0.13-0.44,0.53-0.48,0.84c-0.04,0.35,0.14,0.78,0.62,0.51
			C361.34,226.39,361.48,226.03,361.63,225.83z M263.15,149.59c-0.44-0.09-0.79-0.21-1.14-0.2c-0.22,0-0.63,0.26-0.62,0.28
			c0.24,0.6,0.76,0.43,1.21,0.39C262.76,150.03,262.9,149.8,263.15,149.59z M374.95,240.16c0.44,0.09,0.79,0.2,1.13,0.2
			c0.22,0,0.62-0.26,0.62-0.27c-0.24-0.59-0.76-0.43-1.2-0.38C375.34,239.72,375.2,239.94,374.95,240.16z M291.18,218.86
			c-0.44-0.09-0.79-0.2-1.13-0.2c-0.22,0-0.62,0.26-0.62,0.27c0.24,0.59,0.76,0.43,1.2,0.38
			C290.79,219.3,290.93,219.07,291.18,218.86z M266.56,219.95c-0.22-0.09-0.43-0.19-0.65-0.28c-0.09,0.22-0.3,0.48-0.24,0.63
			c0.06,0.15,0.4,0.2,0.61,0.29C266.37,220.38,266.47,220.17,266.56,219.95z M92.1,203.27c0.12-0.22,0.3-0.41,0.3-0.61
			c0-0.19-0.19-0.39-0.3-0.58c-0.11,0.19-0.3,0.38-0.3,0.58C91.79,202.85,91.98,203.05,92.1,203.27z M90.57,184.92
			c-0.13,0.21-0.33,0.39-0.33,0.58c-0.01,0.2,0.17,0.4,0.27,0.6c0.12-0.18,0.32-0.36,0.33-0.55
			C90.85,185.36,90.68,185.15,90.57,184.92z M359.76,148.98c-0.21-0.13-0.4-0.32-0.59-0.32c-0.2,0-0.4,0.18-0.59,0.28
			c0.19,0.12,0.37,0.32,0.56,0.33C359.33,149.27,359.53,149.09,359.76,148.98z M286.74,148.61c-0.2,0.12-0.39,0.23-0.58,0.34
			c0.19,0.11,0.39,0.3,0.58,0.3c0.19,0,0.39-0.19,0.58-0.3C287.13,148.84,286.94,148.73,286.74,148.61z M423.74,217
			c0.2-0.11,0.4-0.21,0.6-0.32c-0.19-0.12-0.37-0.32-0.56-0.32c-0.19-0.01-0.4,0.18-0.59,0.28
			C423.37,216.76,423.55,216.88,423.74,217z M355.86,219c-0.22-0.12-0.42-0.31-0.61-0.3c-0.19,0-0.39,0.19-0.58,0.3
			c0.19,0.11,0.38,0.3,0.58,0.3C355.45,219.3,355.64,219.12,355.86,219z M368.66,135.03c0.11,0.04,0.22,0.1,0.33,0.1
			c0.04,0,0.07-0.17,0.1-0.27c-0.11-0.04-0.22-0.1-0.32-0.1C368.73,134.77,368.7,134.94,368.66,135.03z M270.13,235.15
			c-0.11,0.03-0.24,0.04-0.32,0.11c-0.03,0.03,0.04,0.18,0.07,0.28c0.11-0.03,0.24-0.04,0.32-0.11
			C270.24,235.41,270.16,235.25,270.13,235.15z"/>
		<path class="st1" d="M447.51,118.99c0-0.26,0-0.52,0-0.78c1.56,0,3.11,0,4.67,0c-0.81,0.84-1.62,1.68-2.42,2.51
			c-1.68-0.07-3.36-0.2-5.04-0.2c-13.61-0.06-27.21-0.11-40.82-0.16c0.7-2.23,2.58-1.33,3.95-1.34
			C421.07,118.96,434.29,118.99,447.51,118.99c0.28,0.3,0.44,1,1,0.29C448.18,119.18,447.85,119.09,447.51,118.99z"/>
		<path class="st2" d="M31.64,248.18c0.05-0.77,0.13-1.55,0.14-2.32c0.1-7.88,0.1-7.88,8.2-7.88c67.76-0.02,135.53-0.04,203.29-0.06
			c0.64,0,1.28,0.06,2.32,0.12c-1.79,3.31-4.97,5.01-6.93,7.74c-0.49,0.49-0.99,0.98-1.48,1.47c0,0,0.04,0,0.04,0
			c-0.94,0.18-1.4,0.8-1.59,1.68c-0.24-0.01-0.46,0.04-0.67,0.16c-1.29-0.02-2.59-0.06-3.88-0.06
			c-65.03-0.01-130.06-0.01-195.09-0.05C34.53,248.97,32.85,249.71,31.64,248.18z"/>
		<path class="st3" d="M227.96,254.47c0.12,0.17,0.26,0.19,0.42,0.06c0,0.25,0.08,0.47,0.22,0.67c-0.18,0.16-0.27,0.36-0.26,0.6
			c-1.28,1.31-2.56,2.61-3.85,3.92c-0.19,0.2-0.37,0.39-0.56,0.59c-1.02,0.65-1.96,1.39-2.53,2.51c-1.72,1.75-3.73,2.32-6.24,2.32
			c-59.86-0.13-119.72-0.19-179.58-0.16c-2.95,0-4.4-0.62-3.81-3.76c0.41-2.22-0.91-4.64,0.8-6.71c0.51-0.01,1.02-0.01,1.52-0.02
			c0.26-0.01,0.52-0.02,0.79-0.03c0.26,0,0.52,0,0.77,0c0.9,0.07,1.8,0.19,2.7,0.19c42.32,0.01,84.64,0.01,126.96,0
			c0.9,0,1.8-0.11,2.7-0.16c18.68,0.01,37.36,0.01,56.05,0.02c0.53,0,1.06-0.01,1.58-0.01
			C226.41,254.48,227.19,254.47,227.96,254.47z"/>
		<path class="st2" d="M32.02,130.65c-0.04-0.52-0.09-1.04-0.13-1.55c0.09-0.07,0.26-0.16,0.25-0.21c-0.04-0.19-0.15-0.36-0.23-0.54
			c0-2.09,0-4.17,0-6.26c1.5-0.47,3-0.95,4.5-1.42c0.39-0.04,0.77-0.12,1.16-0.12c66.05,0.01,132.11,0.03,198.16,0.04
			c2.35,2.56,4.7,5.11,7.05,7.67c0.09,1.46-0.36,1.75-2,1.74c-24.74-0.13-49.48-0.11-74.23-0.11c-42.49-0.01-84.98-0.01-127.47,0.02
			C36.72,129.91,34.24,129.15,32.02,130.65z"/>
		<path class="st4" d="M377.6,342.68c5.51-3.95,10.78-6.49,17.1-4.25c0.96,0.34,2.27,0.7,2.66,1.45c2.23,4.22,4.33,2.29,7.06,0.43
			c3.99-2.71,8.56-3.61,13.32-2.03c4.17,1.38,5.86,3.7,5.75,8.11c-0.2,8.48-3,16.51-4.4,24.78c-0.04,0.25-0.12,0.5-0.2,0.75
			c-0.54,1.81-0.02,4.72-1.67,5.22c-2.62,0.79-5.67,0.59-8.45,0.21c-2.1-0.29-0.99-2.35-0.77-3.49c1.24-6.47,2.66-12.91,4.03-19.36
			c0.03-0.13,0.11-0.25,0.12-0.37c0.13-2.91,2.08-6.31-1.99-8.13c-2.64-1.18-6.77,0.64-8.91,3.93c-2.02,3.09-2.66,6.71-3.47,10.23
			c-1.1,4.79-2.15,9.59-2.93,14.44c-0.36,2.25-1.17,2.94-3.44,2.97c-7.9,0.09-7.85,0.19-6.14-7.62c1.3-5.93,2.52-11.88,3.63-17.85
			c0.37-1.99,0.87-4.33-1.2-5.72c-2-1.34-4.27-0.82-6.34,0.14c-3.18,1.47-4.88,4.22-5.64,7.48c-1.59,6.79-3.11,13.6-4.47,20.45
			c-0.45,2.29-1.29,3.2-3.77,3.17c-7.24-0.07-7.31,0.04-5.92-6.92c1.96-9.76,4-19.5,6.1-29.23c0.24-1.09-0.09-2.92,1.84-2.93
			c2.57-0.01,5.15,0.08,7.69,0.41C377.46,338.98,377.44,341,377.6,342.68z"/>
		<path class="st3" d="M421.73,215.47c-19.17,0.07-38.34,0.13-57.51,0.2c-2.84,0.01-5.69,0.01-8.53,0.02
			c-19.17-0.06-38.34-0.11-57.51-0.17c-1.39,0-2.79,0-4.61,0c3.38-3.57,6.52-6.72,9.44-10.04c1.45-1.65,3.17-1.45,4.96-1.45
			c31.22-0.03,62.44-0.04,93.67-0.1c2.31,0,4.61,0.14,6.94-0.24c3.89-0.63,5.91,2.26,8,4.84c0.2,0.23,0.4,0.47,0.6,0.7
			c0,0,0.03,0.04,0.03,0.04c0.24,0.28,0.48,0.56,0.71,0.84c0.21,0.26,0.42,0.53,0.64,0.79c0.52,0.64,1.05,1.28,1.57,1.92
			c0.31,0.37,0.63,0.75,0.94,1.12C421.28,214.45,421.5,214.96,421.73,215.47z"/>
		<path class="st2" d="M368.9,153.14c17.37,0,34.74,0,53.34,0c-4.06,4.33-7.36,7.98-10.86,11.45c-0.56,0.55-1.98,0.31-3,0.31
			c-33.71,0-67.43-0.04-101.14,0c-2.01,0-3.4-0.52-4.65-2.08c-2.42-3-5.02-5.86-8.32-9.68c23.48,0,45.94,0,68.4,0
			C364.74,153.14,366.82,153.14,368.9,153.14z"/>
		<path class="st5" d="M57.11,373.02c-4.11,2.98-7.33,5.07-11.32,5.67c-7.03,1.06-12.9-2.72-14.69-9.57
			c-2.33-8.92,2.88-22.75,10.53-27.95c6.85-4.66,13.1-4.33,20.88,1.3c1.08-5.14,2.27-10.1,3.12-15.12c0.44-2.63,1.33-3.67,4.21-3.59
			c7.05,0.19,7.05,0.02,5.63,6.89c-2.95,14.29-5.99,28.56-8.78,42.88c-0.68,3.47-1.87,5.29-5.74,4.66
			C58.25,377.75,53.9,379.5,57.11,373.02z M59.81,354.68c0.17-4.08-0.69-6.84-3.64-8.08c-3.05-1.29-6.15-0.67-8.71,1.49
			c-4.88,4.12-5.99,9.83-5.78,15.74c0.22,6.13,5.4,8.68,10.71,5.54C58.39,365.83,59.19,359.77,59.81,354.68z"/>
		<path class="st3" d="M321.38,182.01c-1.9,0.14-2.48-1.52-3.48-2.58c-2.54-2.7-5.04-5.45-8.08-8.76c32.84,0,64.89,0,97.17,0
			c-1.46,3.02-4.24,5.14-5.41,8.27c-0.55-0.09-0.76,0.25-0.87,0.71c0,0,0.04-0.05,0.04-0.05c-0.23,0.29-0.46,0.58-0.7,0.86
			c-0.52,0.46-1.04,0.91-1.57,1.37c-24.68-0.03-49.36-0.07-74.04-0.09C323.43,181.75,322.41,181.92,321.38,182.01z"/>
		<path class="st5" d="M122.17,349.2c4.17-9.66,12.02-11.82,22.39-11.17c1.91,0.12,3.87,0.49,5.68,1.11
			c3.53,1.22,5.45,3.67,5.28,7.63c-0.26,6.12-2.23,11.91-3.28,17.88c-0.67,3.83-1.72,7.57-0.86,11.5c0.12,0.55,0.48,1.6-0.27,1.69
			c-2.17,0.25-4.39,0.03-6.55,0.32c-2.76,0.37-3.74-0.91-3.52-3.88c-3.87,1.92-7.14,4.26-11.24,4.48c-2.88,0.16-5.74,0.15-8.34-1.17
			c-4.92-2.51-6.07-8.58-2.91-14.2c2.81-4.99,7.57-6.76,12.74-7.89c3.78-0.83,7.56-1.69,11.36-2.44c2-0.4,2.28-1.69,2.24-3.4
			c-0.04-1.81-0.78-3.07-2.59-3.32c-3.8-0.54-7.6-0.78-10.1,3.02c-0.74,1.12-1.45,1.48-2.86,1.12
			C127.11,349.87,124.78,349.63,122.17,349.2z M142.96,359.25c-4.23,1.11-8.02,1.84-11.62,3.12c-2.57,0.92-4.41,3.05-3.4,6.02
			c1.06,3.09,3.56,3.56,6.59,2.81C140.56,369.71,142.31,365.26,142.96,359.25z"/>
		<path class="st5" d="M99.65,361.59c-3.37,0-6.75,0.09-10.11-0.03c-3.02-0.11-3.54,1.29-2.89,3.89c0.68,2.71,1.96,4.78,4.85,5.41
			c2.9,0.63,5.29-0.27,7.4-2.34c0.97-0.95,1.13-2.99,2.89-2.82c2.69,0.27,5.37,0.76,7.99,1.41c1.55,0.38,0.47,1.38,0.09,2.08
			c-4.91,8.91-19.91,12.76-28.41,7.19c-4.66-3.05-5.69-7.89-5.33-12.97c0.69-9.63,4.12-17.86,12.99-22.91
			c5.12-2.91,10.61-3.36,16.12-1.61c4.86,1.54,7.71,5.12,8.3,10.23c0.46,4,1.23,8.64-1.14,11.71c-1.75,2.25-6.08,0.5-9.24,0.76
			C101.99,361.67,100.82,361.59,99.65,361.59z M95.93,354.98c1.16,0,2.38,0.22,3.48-0.05c1.58-0.4,4.23,1.55,4.56-1.82
			c0.31-3.16-0.85-5.67-3.91-6.8c-3.21-1.19-7.05,0.39-9.48,3.68c-0.99,1.33-2.42,2.91-1.68,4.46c0.61,1.3,2.58,0.34,3.94,0.5
			C93.85,355.07,94.89,354.97,95.93,354.98z"/>
		<path class="st4" d="M215.43,366.8c-5.31,12.73-21.61,14.04-28.89,9.38c-5.87-3.75-6.1-9.76-5.4-15.93
			c1.28-11.27,8.68-20.21,18.7-22.21c5.82-1.16,11.54-0.69,15.68,4.2c4.4,5.2,3.34,11.4,2.4,17.46c-0.3,1.96-1.91,1.38-3.08,1.39
			c-6.74,0.04-13.48,0.16-20.22-0.04c-2.99-0.09-3.61,1.24-3.26,3.72c0.35,2.49,1.58,4.52,3.93,5.37c2.82,1.01,6.07,1.04,7.82-1.6
			c2.52-3.8,5.49-3.38,8.97-2.21C213.05,366.65,214.13,366.63,215.43,366.8z M200.93,354.76c1.8,0,3.6,0,5.41,0
			c1.25,0,2.15-0.22,2.42-1.79c0.73-4.32-2.81-8.03-7.11-7.27c-2.96,0.52-5.18,2.15-6.76,4.67c-0.74,1.19-1.84,2.5-1.04,3.88
			c0.64,1.1,2.11,0.39,3.21,0.48C198.35,354.83,199.64,354.76,200.93,354.76z"/>
		<path class="st4" d="M462.96,367.02c-4.95,9.94-17.78,14.59-27.44,10.14c-3.36-1.55-5.49-4.23-6.55-7.77
			c-3.74-12.47,5.03-27.99,17.65-31.21c12.05-3.07,20.15,3.55,19.42,15.86c-0.42,7.07-0.42,7.07-7.4,7.07
			c-5.71,0-11.41,0.06-17.12-0.03c-2-0.03-2.81,0.61-2.72,2.67c0.12,2.65,0.89,4.92,3.35,6.12c2.46,1.21,5.77,1.65,7.26-0.49
			C453.27,363.86,457.93,365.85,462.96,367.02z M448.3,354.77c1.93,0,3.87-0.02,5.8,0.01c1.19,0.01,1.85-0.39,2.1-1.69
			c0.83-4.2-2.81-8.1-7.01-7.4c-2.98,0.5-5.21,2.12-6.81,4.62c-0.76,1.18-1.9,2.5-1.14,3.86c0.71,1.28,2.36,0.46,3.58,0.57
			C445.97,354.85,447.14,354.76,448.3,354.77z"/>
		<path class="st4" d="M353.89,366.94c-5.76,12.29-19.74,13.49-27.99,9.87c-3.88-1.7-5.69-5.19-6.35-9.22
			c-1.63-10,3.58-26.42,18.68-29.61c11.73-2.48,19.85,4.54,18.78,16.39c-0.01,0.13-0.03,0.26-0.05,0.39
			c-1.22,7.29,0.81,6.27-6.93,6.35c-5.7,0.06-11.42,0.18-17.11-0.05c-2.79-0.12-3.3,1.03-3.08,3.37c0.25,2.67,1.35,4.87,3.88,5.77
			c2.83,1.01,6.24,0.97,7.82-1.65c2.37-3.95,5.3-3.18,8.6-2.33C351.27,366.49,352.43,366.66,353.89,366.94z M339.07,354.75
			c1.55,0,3.13-0.17,4.65,0.03c3.65,0.5,3.83-1.67,3.31-4.22c-0.49-2.43-1.86-4.29-4.46-4.77c-3.35-0.61-6.1,0.68-8.26,3.16
			c-1.26,1.45-2.88,3.33-2.15,5.11c0.66,1.6,3,0.46,4.59,0.68C337.51,354.85,338.3,354.76,339.07,354.75z"/>
		<path class="st2" d="M322.95,187.24c23.37,0.04,46.75,0.15,70.12,0.04c3.35-0.02,6.04,0.51,8.02,3.3
			c0.36,0.94,1.04,1.56,1.93,1.97c1.13,2.08,2.84,3.64,4.64,5.1c0,0.22,0.01,0.43,0.03,0.65c0,0,0.06-0.04,0.06-0.04
			c-5.19,0.06-10.37,0.16-15.56,0.18c-25.17,0.07-50.33,0.11-75.5,0.16c-0.77,0-1.55-0.01-2.32-0.01c-0.53,0-1.05,0-1.58,0
			c-0.79-0.03-1.58-0.07-2.37-0.1c-0.05-0.3-0.11-0.6-0.16-0.9c2.44-2.47,4.87-4.94,7.31-7.42c0.31-0.35,0.61-0.7,0.91-1.06
			c0.29-0.02,0.48-0.17,0.58-0.44c0,0,0.31-0.07,0.31-0.07l0.07-0.3c0.38-0.31,0.76-0.63,1.15-0.94
			C321.4,187.32,322.18,187.28,322.95,187.24z"/>
		<path class="st4" d="M240.15,365.75c-2.71,3.11-5.33,5.81-7.57,8.8c-1.73,2.32-3.67,3.31-6.56,3.03
			c-2.51-0.25-5.07-0.05-8.44-0.05c5.59-6.16,10.52-11.75,15.63-17.15c1.93-2.04,2.56-3.61,0.9-6.31c-2.57-4.17-4.53-8.71-6.8-13.07
			c-0.89-1.7-0.85-2.7,1.45-2.5c0.51,0.05,1.05,0.08,1.55-0.01c6.36-1.16,10.63,0.8,11.98,7.63c0.46,2.33,1.74,3.16,3.44,0.68
			c0.44-0.64,1.1-1.13,1.48-1.79c4.01-6.98,10.32-7.49,17.87-6.05c-4.74,5.09-9.17,10.07-13.86,14.79c-2.31,2.33-2.93,4.22-1.1,7.3
			c2.7,4.55,4.75,9.49,7.16,14.22c0.83,1.62,0.7,2.37-1.33,2.32c-2.85-0.08-5.71-0.13-8.55-0.01c-1.63,0.07-2.26-0.78-2.82-2.06
			C243.2,372.33,241.73,369.2,240.15,365.75z"/>
		<path class="st3" d="M263.74,221.06c-3.39,3.37-6.8,6.72-10.16,10.11c-0.88,0.89-1.83,1.27-3.09,1.27
			c-22.78-0.04-45.57-0.04-68.35-0.06c-0.23,0-0.45-0.12-1.41-0.38c5.08-3.6,7.99-9.04,13.77-11.18c0.77,0,1.53-0.01,2.3-0.01
			c0.53,0,1.07,0,1.6,0c0.76-0.01,1.52-0.02,2.28-0.03c19.74-0.01,39.48-0.01,59.22-0.02C261.18,220.86,262.46,220.96,263.74,221.06
			z"/>
		<path class="st3" d="M260.65,215.63c-8.82,0.01-17.64,0.03-26.46,0.04c-9.35,0-18.7,0-28.05,0c-2.33-0.07-4.65-0.14-6.98-0.21
			c1.35-1.51,2.69-3.03,4.04-4.54c5.1-6.42,11.9-7.2,19.65-7.04c19.05,0.4,38.11,0.04,57.17-0.02c0.63,2.11-2.07,2.23-2.29,3.83
			c-2.52,2.16-4.94,4.41-6.95,7.07c-0.28,0.22-0.55,0.44-0.83,0.66c-0.77,0.06-1.55,0.12-2.32,0.18
			C265.32,215.61,262.99,215.62,260.65,215.63z"/>
		<path class="st3" d="M217.07,170.37c5.1,0,9.47,0,13.83,0c17.1,0,34.2,0.06,51.3-0.05c2.91-0.02,5.16,0.51,7.1,2.89
			c1.96,2.39,4.39,4.38,6.6,6.57c0.52,0.52,1.44,1.01,1.02,1.89c-0.42,0.88-1.34,1.08-2.33,0.99c-20.65-1.9-41.34-0.46-62.01-0.88
			c-3.51-0.07-6.61,0.02-8.58-4.05C222.73,175.08,219.84,173.21,217.07,170.37z"/>
		<path class="st4" d="M260.25,315.62c-0.21,6.35-7.56,16.95-13.17,19.09c-1.83,0.7-1.88-0.72-2.26-1.75
			c-0.95-2.59-2.18-4.09-4.78-1.49c-0.95,0.95-1.69,1.29-2.58-0.42c-1.66-3.2-3.74-6.18-5.57-9.29c-3.67-6.22-2.84-11.42,2.55-16.29
			c2.79-2.53,5.6-5.11,7.42-8.41c1.4-2.54,2.43-1.72,3.56-0.08c1.44,2.08,2.53,5.22,5.03,0.84c0.53-0.93,1.32-0.62,1.88,0.1
			C256.44,303.16,260.22,308.55,260.25,315.62z"/>
		<path class="st3" d="M279.9,230.31c2.93-3.12,5.85-6.23,8.78-9.35c1.29-0.07,2.58-0.13,3.87-0.2c20.26,0,40.53,0,60.79,0
			c1.52,0.13,3.03,0.26,4.55,0.39c-10.1,11.34-10.1,11.33-25.08,11.34c-16.52,0.01-33.05,0.05-49.57,0.08
			c-0.52,0-1.03-0.01-1.55-0.01c-0.26,0.01-0.52,0.02-0.78,0.03c-0.26,0.02-0.52,0.04-0.78,0.06c-0.5-0.22-1-0.43-1.5-0.65
			c0.2-0.32,0.39-0.64,0.59-0.96c0,0,0.09-0.11,0.09-0.11C279.5,230.72,279.7,230.52,279.9,230.31z"/>
		<path class="st3" d="M353.32,147.93c-20.25,0-40.5,0-60.75,0c-0.25,0-0.5,0-0.76-0.01c-0.53,0-1.06,0-1.59,0.01
			c-0.51-0.03-1.02-0.07-1.53-0.1c-3.14-3.52-6.27-7.03-9.59-10.74c2.09-0.94,3.64-0.56,5.14-0.57c18.64-0.09,37.27-0.01,55.91-0.29
			c4.7-0.07,8.18,1.54,11.31,4.76c1.97,2.02,4.22,3.78,6.34,5.66c-0.18,0.31-0.37,0.62-0.55,0.92c-1.06,0.12-2.12,0.24-3.18,0.36
			C353.82,147.92,353.57,147.92,353.32,147.93z"/>
		<path class="st3" d="M270.76,154.83c3.34,2.81,6.38,5.9,9.25,9.17c-1.12,1.35-2.36,0.88-3.44,0.88
			c-20.87,0.02-41.75-0.03-62.62,0.05c-2.4,0.01-4.12-0.63-5.79-2.37c-2.92-3.04-6.11-5.83-9.53-9.05c5.4,0,10.26,0,15.13,0
			c16.21,0,32.41,0,48.62,0.02c1.41,0,2.82,0.18,4.24,0.28c-16.95,0.08-33.91,0.14-50.87,0.25c-1.35,0.01-2.78-0.39-4.83,0.74
			c10.19,0,19.61,0,29.03,0C250.22,154.8,260.49,154.82,270.76,154.83z"/>
		<path class="st2" d="M193.69,148.01c-4.98-2.48-7.91-7.31-12.37-10.5c1.09-1.47,2.47-0.87,3.63-0.87
			c20.35-0.04,40.71,0.08,61.06-0.13c4.39-0.04,7.75,1.08,10.55,4.43c1.98,2.37,4.26,4.5,6.41,6.73c-2.83,0.1-5.67,0.19-8.5,0.29
			c-16.63,0.01-33.27,0.02-49.9,0.03c-2.05,0-4.1,0-6.14,0c-1.05,0.01-2.1,0.01-3.15,0.02
			C194.74,148.02,194.22,148.02,193.69,148.01z"/>
		<path class="st3" d="M316.72,120.36c0.53-0.01,1.06-0.02,1.59-0.03c0.93,0.09,1.88,0.24,2.68-0.45c0.63,0.01,1.26,0.02,1.9,0.03
			c2.3,0.6,4.61,0.52,6.92,0.03c5,2.28,7.47,7.16,11.68,10.56c-1.7,1.03-3.01,0.6-4.24,0.6c-20.06,0.04-40.12-0.04-60.19,0.1
			c-3.23,0.02-5.69-0.6-7.7-3.26c-1.93-2.56-4.2-4.87-6.33-7.29c1.55-0.05,3.11-0.13,4.66-0.13
			C284.03,120.46,300.38,120.41,316.72,120.36z"/>
		<path class="st2" d="M228.48,187.4c20.74-0.01,41.48-0.02,62.21-0.05c1.42,0,2.85-0.09,4.27-0.13c0.74,0.5,2.86-0.59,2.02,1.74
			c-0.19,0.23-0.37,0.46-0.56,0.68c-0.32,0.29-0.63,0.58-0.95,0.87c-2.02,1.95-4.05,3.89-6.04,5.87c-1.1,1.09-2.13,2.23-3.84,2.25
			c-20.77-0.01-41.54-0.02-62.3-0.03c-0.77,0-1.54,0.01-2.32,0.01c-1.03-0.01-2.06-0.02-3.09-0.02c-0.54-2,1.49-2.2,2.34-3.18
			c1.72-1.99,4.1-3.39,5.35-5.83c0.76-0.18,1.47-0.4,1.49-1.38c0,0,0.1-0.11,0.1-0.11C227.59,187.86,228.03,187.63,228.48,187.4z"/>
		<path class="st3" d="M366.55,220.75c18.43,0,36.86,0,55.29,0c2.64-0.1,5.05,0.42,6.84,2.58c1.88,3.18,5.28,5.18,7.18,9.08
			c-4.07,0-7.76,0-11.44,0c-14.47,0-28.95-0.26-43.41,0.12c-6.07,0.16-11.17-0.57-14.57-6.12c-0.26-0.86-0.82-1.45-1.63-1.82
			c-0.4-0.46-0.79-0.93-1.19-1.39c-0.29-0.29-0.59-0.58-0.88-0.86c0,0,0.08,0.07,0.08,0.07c-0.26-0.31-0.52-0.61-0.77-0.92
			c0,0,0.19,0.1,0.19,0.1C363.45,220.22,365.16,221.31,366.55,220.75z"/>
		<path class="st2" d="M332.24,237.84c1.07-0.01,2.13-0.01,3.2-0.02c1.45,0.51,3.25-0.43,4.45,1.08
			c-3.85,5.38-7.17,10.58-15.48,10.32c-19.14-0.6-38.31-0.19-57.46-0.19c-1.12,0-2.24,0-4.33,0c3.92-4.14,7.23-7.62,10.53-11.1
			C292.85,237.91,312.55,237.87,332.24,237.84z"/>
		<path class="st3" d="M393.8,254.45c13.73,0.07,27.46,0.14,41.19,0.19c4.67,0.02,9.35,0.23,13.99-0.07
			c3.81-0.25,6.7,0.71,8.99,3.88c1.65,2.28,3.73,4.25,5.67,6.42c-1.41,1.15-2.86,0.67-4.2,0.67c-17.24,0.04-34.48-0.12-51.71,0.12
			c-4.68,0.06-8.19-0.92-10.69-5.11c-1.24-2.08-3.1-3.79-4.69-5.67C392.84,254.74,393.32,254.59,393.8,254.45z"/>
		<path class="st3" d="M325.52,256.23c-3.01,2.64-6.04,5.26-9.01,7.94c-0.81,0.73-1.58,1.2-2.72,1.2
			c-21.74-0.02-43.48-0.02-66.31-0.02c3.5-3.69,6.41-6.84,9.45-9.88c0.43-0.43,1.44-0.39,2.19-0.39
			c21.36-0.17,42.72-0.31,64.08-0.45c0.47,0,0.95,0.14,1.42,0.22C324.92,255.31,325.22,255.77,325.52,256.23z"/>
		<path class="st2" d="M363.17,147.06c0.08-0.27,0.16-0.55,0.24-0.82c3.53-2.51,6-6.01,8.69-9.3c17.98-0.11,35.96-0.22,53.94-0.32
			c2.95-0.02,5.9,0,9.19,0c-1.51,4.13-4.97,6.41-6.51,9.94c-0.35,0.38-0.69,0.76-1.03,1.15l-0.24-0.03l-0.17,0.17
			c-1.55,0.03-3.1,0.06-4.65,0.09c-2.87,0.01-5.74,0.01-8.61,0.02c-0.5,0.01-1.01,0.02-1.51,0.03c-0.8,0.01-1.6,0.02-2.4,0.02
			c-15.02-0.22-30.04-0.35-45.06,0.07c-0.56-0.05-1.11-0.1-1.67-0.15C363.31,147.63,363.24,147.35,363.17,147.06z"/>
		<path class="st4" d="M286.39,324.72c-0.82,4.02-1.29,7.19-2.14,10.26c-0.76,2.74-0.13,3.79,2.82,3.6c1.06-0.07,3.59-1,3.02,1.43
			c-0.57,2.42,0.88,6.94-3.16,6.76c-5.17-0.23-5.91,2.3-6.44,6.28c-0.57,4.21-1.66,8.36-2.54,12.53c-0.61,2.87-0.02,4.78,3.43,4
			c2.37-0.54,2.79,0.24,2.6,2.49c-0.45,5.43-0.67,5.8-6.01,6.29c-1.03,0.09-2.07,0.21-3.1,0.16c-4.82-0.2-8.91-1.02-8.09-8.4
			c0.72-6.43,2.49-12.65,3.67-18.99c0.38-2.04,1.57-4.63-2.43-4.16c-0.22,0.03-0.59-0.09-0.68-0.26c-1.23-2.22,0.62-4.18,0.58-6.32
			c-0.03-1.49,0.92-2.09,2.3-1.88c2.06,0.32,3.32-0.48,3.31-2.56c-0.04-4.74,3.19-6.63,6.83-8.27
			C282.1,326.89,283.79,326,286.39,324.72z"/>
		<path class="st3" d="M403.91,120.37c13.61,0.05,27.21,0.09,40.82,0.16c1.68,0.01,3.36,0.13,5.04,0.2
			c-2.08,3.92-5.75,6.49-8.48,9.86c-0.36,0.45-1.44,0.44-2.19,0.44c-20.09,0.02-40.17,0.02-61.29,0.02c3.3-3.87,6.15-7.21,9-10.55
			c1.54-0.05,3.08-0.1,4.62-0.14C395.58,120.36,399.74,120.36,403.91,120.37z"/>
		<path class="st2" d="M382.96,244.9c-1.54-2.26-3.26-4.35-5.39-6.09c1.05-1.51,2.62-0.78,3.94-0.78
			c19.93-0.06,39.86-0.05,59.79-0.05c0.37,0.33,0.74,0.65,1.1,0.98c0.36,0.4,0.72,0.8,1.07,1.2c0.93,2.26,2.68,3.9,4.26,5.68
			c0.13,1.14,1.8,1.5,1.44,3.18c-1.38,0-2.77,0-4.17,0c-19.13,0.06-38.26,0.11-57.39,0.17c-0.44-0.1-0.88-0.21-1.31-0.31
			c-0.16-0.63-0.35-1.23-1.1-1.4c0,0-0.04-0.05-0.04-0.05c-0.23-0.27-0.47-0.55-0.7-0.82c0,0,0.01,0.01,0.01,0.01
			C383.97,246.05,383.46,245.47,382.96,244.9z"/>
		<path class="st3" d="M88.55,221.11c-0.39,3.68,1.64,8.43-0.88,10.76c-2.28,2.11-6.91,0.59-10.5,0.6
			c-13.95,0.03-27.9-0.14-41.85-0.01c-2.95,0.03-3.89-0.85-3.62-3.71c0.24-2.56,0.08-5.16,0.1-7.74c3.61-0.09,7.22-0.19,10.83-0.28
			c1.32,0.01,2.64,0.01,3.95,0.02l0.37,0.11l0.37-0.09c12.99-0.01,25.99-0.01,38.98-0.02C87.05,220.86,87.8,220.98,88.55,221.11z"/>
		<path class="st3" d="M87.04,203.81c0.44,0.04,0.89,0.07,1.33,0.11c0.1,0.49,0.2,0.98,0.3,1.47c0,0.52-0.01,1.03-0.01,1.55
			c0,0.78,0,1.56-0.01,2.34c-0.05,2.05-0.1,4.1-0.15,6.15c0,0,0.01-0.01,0.01-0.01c-16.07,0.04-32.14,0.08-48.2,0.13
			c-1.81,0.01-3.62,0.09-5.44,0.13c-1.03-0.09-2.05-0.19-3.08-0.28c-0.06-2.04-0.12-4.08-0.18-6.13c0-0.77,0-1.54-0.01-2.31
			c0.01-0.53,0.01-1.05,0.02-1.58c0.11-0.49,0.23-0.97,0.34-1.46c17.83-0.04,35.66-0.09,53.5-0.13
			C86,203.79,86.52,203.8,87.04,203.81z"/>
		<path class="st3" d="M88.55,162.57c-0.01,0.71-0.02,1.42-0.03,2.13c-0.49,0.1-0.99,0.2-1.48,0.31
			c-17.05-0.04-34.11-0.21-51.16-0.04c-3.56,0.04-4.74-1.08-4.09-4.34c0.51-2.52-1.29-5.38,1.1-7.62c0,0,0.1,0.02,0.1,0.02
			c18.17,0.31,36.34,0.69,54.52,0.32C87.85,156.43,88.2,159.5,88.55,162.57z"/>
		<path class="st3" d="M31.63,180.47c0.04-0.39,0.06-0.77,0.11-1.15c0.33-2.9-1.3-6.77,0.77-8.46c1.73-1.41,5.42-0.47,8.25-0.48
			c13.7-0.02,27.39-0.01,41.09-0.01c5.61,0,5.61,0,6.3,5.42c-0.14,0.83-0.39,1.68,0.32,2.4c0.04,0.5,0.09,1,0.13,1.5
			c-0.02,1.53-0.82,2.3-2.32,2.37c-17.39,0-34.78,0-52.17,0.01C33.1,181.81,31.78,182.04,31.63,180.47z"/>
		<path class="st2" d="M31.78,147.75c0.23-3.46-1.46-7.89,0.62-10.12c2.3-2.47,6.86-0.81,10.41-0.85
			c13.57-0.15,27.14-0.14,40.71-0.14c1.51,0,3.12-0.43,4.5,0.61c0,0,0.02,0.09,0.02,0.09c0,1.15-0.01,2.3-0.01,3.44
			c0.14,2.33,0.28,4.65,0.41,6.98c0,0,0.1-0.1,0.1-0.1c-0.75,0.12-1.49,0.25-2.24,0.37c-10.41,0-20.82,0-31.23-0.01
			C47.31,147.92,39.54,147.83,31.78,147.75z"/>
		<path class="st2" d="M86.25,198.94c-4.21-0.44-8.43-0.52-12.64,0.04c-0.42-0.04-0.83-0.08-1.25-0.12
			c-0.84-0.07-1.67-0.14-2.51-0.21c-12.42-0.01-24.84-0.01-37.27-0.02c-1.74-3.59-0.37-7.41-0.81-11.09
			c0.52-0.13,1.03-0.26,1.55-0.39c17.92,0.28,35.84,0.41,53.76,0.01c0.23,0.12,0.46,0.25,0.69,0.37c0,0-0.02-0.03-0.02-0.03
			c0.11,1.53,0.22,3.06,0.32,4.59c0.06,0.53,0.12,1.06,0.18,1.6c-0.26,0.63-0.16,1.22,0.22,1.77c0.04,0.72,0.08,1.43,0.12,2.15
			C88.09,198.51,87.07,198.55,86.25,198.94z"/>
		<path class="st5" d="M159.59,378.11c3.67-17.61,7.29-34.87,10.82-52.15c0.33-1.59,0.94-2.05,2.52-2.16
			c8.4-0.58,8.44-0.62,6.83,7.26c-3.05,14.9-6.21,29.78-9.16,44.7c-0.41,2.06-1.23,2.46-3.03,2.38
			C165.13,378.03,162.67,378.11,159.59,378.11z"/>
		<path class="st4" d="M307.01,342.4c3.74-3.95,7.76-6.11,13-4.01c0.6,0.24,1.65,0.43,1.7,0.77c0.51,3.13-2.18,4.96-3.21,7.49
			c-0.47,1.17-0.96,1.71-2.57,1.25c-5.62-1.61-8.61,0.04-10.69,5.71c-2.42,6.58-3.56,13.5-4.83,20.35c-0.55,3-1.75,3.74-4.56,3.61
			c-7.63-0.35-6.99,1.47-5.34-6.82c1.89-9.51,3.91-18.98,5.92-28.46c0.3-1.42,0.03-3.51,2.06-3.69c2.55-0.21,5.2-0.18,7.7,0.3
			C307.35,339.11,306.08,341,307.01,342.4z"/>
		<path class="st3" d="M32.02,130.65c2.22-1.5,4.7-0.74,7.06-0.74c42.49-0.02,84.98-0.02,127.47-0.02c24.74,0,49.49-0.01,74.23,0.11
			c1.64,0.01,2.09-0.28,2-1.74c1.02,0.56,1.99,1.15,2.33,2.38c-0.7,1.07-1.69,0.43-2.49,0.43c-68.96,0.05-137.93,0.08-206.89,0.06
			C34.5,131.13,33.15,131.62,32.02,130.65z"/>
		<path class="st1" d="M235.73,120.59c-66.05-0.02-132.11-0.03-198.16-0.04c-0.39,0-0.77,0.08-1.16,0.12
			c-1.54-0.02-3.08-0.04-4.63-0.06c1.8-2.35,4.61-0.38,6.73-1.56c0.6-0.33,1.53-0.06,2.3-0.06c63.46,0,126.93-0.01,190.39,0.06
			C232.74,119.05,235.01,117.82,235.73,120.59z"/>
		<path class="st1" d="M316.71,198.6c25.17-0.05,50.33-0.09,75.5-0.16c5.19-0.01,10.37-0.11,15.56-0.18
			c-0.14,4.4-3.26,3.24-5.88,3.24c-27.5-0.03-55-0.02-82.5-0.02c-1.39,0-2.78,0-4.98,0c2.12-1.14,3.55-0.75,4.92-0.75
			c26.72-0.03,53.44-0.01,80.16-0.05c1.48,0,3.14,0.59,4.43-0.75l0.32-0.18l-0.14-0.14l-0.18,0.32c-27.61,0-55.22,0.02-82.84-0.05
			C319.6,199.88,317.59,200.92,316.71,198.6z"/>
		<path class="st1" d="M31.64,248.18c1.21,1.53,2.89,0.78,4.33,0.78c65.03,0.04,130.06,0.04,195.09,0.05c1.29,0,2.59,0.04,3.88,0.06
			c-0.73,0.84-2.22,0.72-2.53,2.18c-0.16,0.77-1.28,0.94-1.53,0.45c-1.75-3.37-4.81-1.89-7.26-1.89
			c-59.12-0.08-118.25-0.07-177.37-0.05c-4.75,0-9.52-0.27-14.24,0.57c-0.66,0.12-1.35,0.18-1.6-0.62
			C30.1,248.67,30.81,248.35,31.64,248.18z"/>
		<path class="st1" d="M224.06,254.49c-18.68-0.01-37.36-0.01-56.05-0.02c-0.16-1.91,0.83-2.42,2.59-2.41
			c18.03,0.04,36.05,0.03,54.08,0.01c1.72,0,3.14,0.3,3.27,2.4c-0.77,0-1.54,0.01-2.31,0.01c-0.31-0.36-0.58-0.97-0.95-1.03
			C224,253.33,224.14,254.05,224.06,254.49z"/>
		<path class="st1" d="M321.38,182.01c1.02-0.09,2.05-0.26,3.07-0.26c24.68,0.02,49.36,0.06,74.04,0.09
			c-0.89,2.32-2.92,1.73-4.64,1.73c-23.89,0.02-47.79,0.02-71.68,0.02c0,0,0,0,0,0C321.9,183.06,321.64,182.53,321.38,182.01z"/>
		<path class="st1" d="M223.28,198.6c20.77,0.01,41.54,0.02,62.3,0.03c-0.51,1.83-2.03,1.28-3.22,1.28
			c-18.63,0.03-37.26,0.03-55.89,0C225.29,199.91,223.76,200.44,223.28,198.6z"/>
		<path class="st1" d="M368.9,153.14c-2.08,0-4.16,0-6.24,0c3.82-2.06,7.91-2.36,12.18-2.29c9.97,0.16,19.95-0.05,29.92,0.1
			c4.54,0.07,8.95-1.12,13.5-0.9c2.58,0.12,4.97,0.76,8.52,1.21c-18.52,1.4-35.97,1.23-53.41,1.23
			C371.88,152.48,370.24,151.93,368.9,153.14z"/>
		<path class="st1" d="M206.15,215.67c9.35,0,18.7,0,28.05,0c0.21,2.08-0.52,3.02-2.81,2.98c-7.48-0.11-14.96-0.11-22.43,0
			C206.68,218.68,205.94,217.75,206.15,215.67z"/>
		<path class="st1" d="M316.72,120.36c-16.34,0.05-32.69,0.1-49.03,0.16c-1.55,0.01-3.11,0.09-4.66,0.13
			c0.47-1.31,1.38-1.51,2.74-1.51c15.93,0.01,31.85-0.09,47.78-0.13C314.74,119.01,316.27,118.5,316.72,120.36z"/>
		<path class="st1" d="M387.61,249.19c19.13-0.06,38.26-0.11,57.39-0.17c1.39,0,2.78,0,4.17,0c0.37-1.68-1.3-2.05-1.44-3.18
			c1.01,0.06,2.12-0.19,2.87,0.79c0.74,0.97,3.15,1.03,2.37,2.47c-0.53,0.99-2.36,1.51-3.2,2.76c-0.08,0.12-0.66,0.1-0.71,0
			c-2.32-4.51-6.38-1.88-9.46-1.95c-14.76-0.34-29.53-0.1-44.3-0.2C392.75,249.68,389.99,251.87,387.61,249.19z"/>
		<path class="st1" d="M441.3,237.98c-19.93,0.01-39.86,0-59.79,0.05c-1.31,0-2.88-0.73-3.94,0.78c-2.63-0.46-3.45-1.64-1.52-3.88
			c1.05-1.22,2.32-0.53,2.21,0.48c-0.29,2.81,1.6,1.84,2.79,1.84c18.6,0.04,37.19,0.01,55.79,0.05
			C438.34,237.31,439.97,236.77,441.3,237.98z"/>
		<path class="st1" d="M32.59,198.63c12.42,0.01,24.84,0.01,37.27,0.02c-1.98,1.09-4.1,1.32-6.33,1.31
			c-9.03-0.05-18.06-0.02-27.1-0.02l0,0C35.49,198.5,33.64,199.74,32.59,198.63z"/>
		<path class="st1" d="M284.53,201.38c-20.85,0-41.69,0-62.54,0c0-0.13,0-0.26,0-0.39c20.9,0,41.8,0,62.7,0
			C284.63,201.12,284.58,201.25,284.53,201.38z"/>
		<path class="st2" d="M270.76,154.83c-10.27-0.01-20.54-0.03-30.82-0.03c-9.42-0.01-18.84,0-29.03,0c2.06-1.13,3.48-0.73,4.83-0.74
			c16.96-0.11,33.91-0.18,50.87-0.25c0.65-0.02,1.3-0.04,1.94-0.05c0.19,0.16,0.41,0.25,0.65,0.26
			C269.85,154.06,270.5,154.08,270.76,154.83z"/>
		<path class="st1" d="M332.24,237.84c-19.7,0.03-39.4,0.06-59.1,0.1c0.83-0.87,1.91-0.65,2.92-0.65c17.86-0.01,35.73-0.01,53.59,0
			C330.56,237.29,331.49,237.17,332.24,237.84z"/>
		<path class="st1" d="M365.04,148.07c15.02-0.42,30.04-0.29,45.06-0.07c-0.75,0.69-1.67,0.57-2.57,0.57
			c-13.43,0-26.85,0.01-40.28-0.02C366.52,148.55,365.78,148.24,365.04,148.07z"/>
		<path class="st1" d="M366.55,220.75c-1.39,0.55-3.1-0.54-4.33,0.84c-1.41-0.48-2.83-0.95-4.24-1.43c0,0,0,0,0,0
			c1.07-1.48,2.98-0.18,4.58-1.61c-2.42-1.01-4.65-1.94-6.87-2.87c2.84-0.01,5.69-0.01,8.53-0.02
			C363.91,217.86,366.66,218.65,366.55,220.75z"/>
		<path class="st1" d="M372.09,136.93c-2.69,3.3-5.16,6.79-8.69,9.3c-2.44-0.64-2.22-2.04-0.6-3.18c2.61-1.82,5.56-3.17,7.13-6.21
			C370.08,136.58,371.35,136.89,372.09,136.93z"/>
		<path class="st1" d="M38.54,151.28c5.08,0,10.16,0,15.24,0c0,0.26,0,0.52,0,0.78c-5.08,0-10.16,0-15.24,0
			C38.55,151.8,38.55,151.54,38.54,151.28z"/>
		<path class="st1" d="M31.78,147.75c7.77,0.09,15.53,0.18,23.3,0.26c-3.53,1.25-7.18,0.22-10.75,0.57c-3,0.29-6.06-0.68-8.99,1.3
			C33.93,150.82,31.97,150.15,31.78,147.75z"/>
		<path class="st1" d="M203.21,210.91c-1.35,1.51-2.69,3.03-4.04,4.54c-1.66-1.42-0.88-2.88,0.04-4.21
			C200.35,209.6,201.8,210.11,203.21,210.91z"/>
		<path class="st1" d="M428.68,223.34c-1.79-2.16-4.2-2.67-6.84-2.58c1.31-3.8,4.15,0.18,6.11-1.05
			C428.18,219.57,430.16,221.69,428.68,223.34z"/>
		<path class="st1" d="M86.27,182.07c1.51-0.07,2.3-0.84,2.32-2.37c0.95,0.2,1.95-1.13,2.76-0.1c0.38,0.48,0.37,1.47,0.18,2.13
			c-0.43,1.51-1.81,0.99-2.86,1.07C87.8,182.86,86.9,182.88,86.27,182.07z"/>
		<path class="st1" d="M88.55,162.57c-0.35-3.07-0.7-6.15-1.04-9.22C89.52,154.51,90.27,161.09,88.55,162.57z"/>
		<path class="st1" d="M277.74,207.69c0.22-1.6,2.92-1.73,2.29-3.83c2.59,0.5,1.91,2.61,1.32,3.8
			C280.54,209.32,278.98,208.18,277.74,207.69z"/>
		<path class="st1" d="M42.62,220.72c-3.61,0.09-7.22,0.19-10.83,0.28c0.17-0.53-1.87-1.84-0.01-1.45
			C35.39,220.29,39.11,219.55,42.62,220.72z"/>
		<path class="st1" d="M224.49,259.72c1.28-1.31,2.56-2.61,3.85-3.92c1.96,1.1,0.7,2.14,0.06,3.37
			C227.28,261.32,225.81,259.71,224.49,259.72z"/>
		<path class="st1" d="M329.8,119.95c-2.31,0.49-4.61,0.56-6.92-0.03C325.2,118.3,327.5,118.65,329.8,119.95z"/>
		<path class="st1" d="M260.65,215.63c2.33-0.01,4.66-0.02,7-0.03C265.32,217.14,263,218.38,260.65,215.63z"/>
		<path class="st1" d="M88.44,147.75c-0.14-2.33-0.28-4.65-0.41-6.98C90.37,142.97,89.66,145.34,88.44,147.75z"/>
		<path class="st1" d="M322.95,187.24c-0.78,0.04-1.55,0.08-2.33,0.12c1.26-2.14-1.25-1.85-1.85-2.77c0.86-1.41,2.22-0.87,3.4-1
			c0,0,0,0,0,0C322.43,184.8,322.69,186.02,322.95,187.24z"/>
		<path class="st1" d="M221.4,262.81c0.57-1.11,1.51-1.85,2.53-2.51c0.03,0.13,0.09,0.26,0.07,0.38c-0.21,1.22,2.43,1.93,0.75,3.27
			C223.34,265.09,222.61,263,221.4,262.81z"/>
		<path class="st1" d="M31.63,180.47c0.15,1.57,1.47,1.34,2.46,1.61c-0.05,1.5-1.36,1.73-2.34,2.29c0,0,0,0,0,0
			C31.81,183.06,28.85,181.86,31.63,180.47z"/>
		<path class="st1" d="M237.16,247.24c0.49-0.49,0.99-0.98,1.48-1.47c1.04,0.65,2.93,1.47,2,2.63
			C239.43,249.94,238.37,247.64,237.16,247.24z"/>
		<path class="st1" d="M339.89,238.91c-1.2-1.51-3-0.57-4.45-1.08c1.33-0.37,2.65-0.88,4.01-1.04c0.55-0.07,1.68,0.14,1.55,1.21
			C340.97,238.34,340.28,238.61,339.89,238.91z"/>
		<path class="st1" d="M254.46,147.98c2.83-0.1,5.67-0.19,8.5-0.29C260.18,149.27,257.33,148.78,254.46,147.98z"/>
		<path class="st1" d="M263.74,221.06c-1.28-0.1-2.56-0.2-3.84-0.3C261.43,217.63,262.68,218.13,263.74,221.06z"/>
		<path class="st1" d="M34.09,254.48c-0.51,0.01-1.02,0.01-1.52,0.02c-0.1-0.82-1.88-0.93-0.98-2.07c0.32-0.4,1.24-0.67,1.74-0.52
			C34.71,252.32,33.83,253.61,34.09,254.48z"/>
		<path class="st1" d="M364.8,224.6c0.81,0.36,1.37,0.96,1.63,1.82c-1.29,0.85-2.5,0.73-3.06-0.73
			C362.94,224.52,364.25,224.9,364.8,224.6z"/>
		<path class="st1" d="M31.81,215.38c1.03,0.09,2.05,0.19,3.08,0.28c-0.65,1.83-3.03,0.31-3.86,1.93
			C31.29,216.86,31.55,216.12,31.81,215.38z"/>
		<path class="st1" d="M87.03,165.01c0.49-0.1,0.99-0.2,1.48-0.31c-0.21,1.16,1.5,2.3-0.28,3.77
			C87.8,167.23,87.42,166.12,87.03,165.01z"/>
		<path class="st1" d="M296.98,188.96c0.84-2.33-1.28-1.24-2.02-1.74c0.83-0.54,1.78-1.58,2.68-0.72
			C298.43,187.25,298.27,188.42,296.98,188.96z"/>
		<path class="st1" d="M90.79,193.59c-0.89-1.5-0.3-2.28,0.56-3.18C91.85,191.57,91.96,192.5,90.79,193.59z"/>
		<path class="st1" d="M86.25,198.94c0.82-0.39,1.84-0.43,2.37-1.34c0.79,1,0,1.67-0.65,2.1C87.26,200.16,86.56,199.8,86.25,198.94z
			"/>
		<path class="st1" d="M198.41,148.01c2.05,0,4.1,0,6.14,0C202.51,148.9,200.46,148.9,198.41,148.01z"/>
		<path class="st1" d="M422.62,147.93c1.55-0.03,3.1-0.06,4.65-0.09C425.77,150.47,424.18,148.01,422.62,147.93z"/>
		<path class="st1" d="M33.33,187.14c-0.52,0.13-1.03,0.26-1.55,0.39c0.25-1.06-1.41-2.1-0.02-3.17c0,0,0,0,0,0
			C32.28,185.29,32.81,186.22,33.33,187.14z"/>
		<path class="st3" d="M31.78,120.61c1.54,0.02,3.08,0.04,4.63,0.06c-1.5,0.47-3,0.95-4.5,1.42
			C31.87,121.59,31.83,121.1,31.78,120.61z"/>
		<path class="st1" d="M428.69,217.62c-0.28,0.64-0.77,0.5-1.18,0.22c-0.27-0.18-0.61-0.54-0.6-0.81c0.03-0.67,0.59-0.72,1.1-0.57
			C428.53,216.63,428.79,217.04,428.69,217.62z"/>
		<path class="st1" d="M217.87,198.59c1.03,0.01,2.06,0.02,3.09,0.02C219.91,201.12,218.89,199.72,217.87,198.59z"/>
		<path class="st1" d="M88.66,209.27c0-0.78,0-1.56,0.01-2.34c0.78,0.12,1.48,0.35,1.35,1.35
			C89.92,209.07,89.27,209.17,88.66,209.27z"/>
		<path class="st1" d="M391.42,120.35c-1.54,0.05-3.08,0.1-4.62,0.14C388.3,119.34,389.85,119.49,391.42,120.35z"/>
		<path class="st1" d="M357.89,221.16c-1.52-0.13-3.03-0.26-4.55-0.39c1.43-1.12,3.09-0.4,4.64-0.6c0,0,0,0,0,0
			C357.95,220.5,357.92,220.83,357.89,221.16z"/>
		<path class="st1" d="M88.1,192.09c-0.11-1.53-0.22-3.06-0.32-4.59C89.14,188.94,88.79,190.5,88.1,192.09z"/>
		<path class="st1" d="M88.46,178.19c-0.71-0.72-0.46-1.57-0.32-2.4C89.75,176.39,89.71,177.21,88.46,178.19z"/>
		<path class="st1" d="M361.63,225.83c-0.14,0.19-0.29,0.56-0.56,0.71c-0.48,0.27-0.67-0.17-0.62-0.51c0.04-0.3,0.23-0.71,0.48-0.84
			C361.32,224.98,361.56,225.29,361.63,225.83z"/>
		<path class="st1" d="M292.55,220.77c-1.29,0.07-2.58,0.13-3.87,0.2C289.91,219.74,291.21,219.9,292.55,220.77z"/>
		<path class="st1" d="M87.04,203.81c-0.52-0.01-1.04-0.02-1.56-0.02c0.2-0.39,0.35-1.07,0.62-1.13
			C86.93,202.49,86.93,203.24,87.04,203.81z"/>
		<path class="st1" d="M88.67,205.38c-0.1-0.49-0.2-0.98-0.3-1.47c0.59,0.04,1.37-0.12,1.39,0.74
			C89.76,204.89,89.05,205.14,88.67,205.38z"/>
		<path class="st1" d="M31.62,206.95c0,0.77,0,1.54,0.01,2.31C30.24,208.49,30.24,207.72,31.62,206.95z"/>
		<path class="st1" d="M312.81,198.59c0.53,0,1.05,0,1.58,0c-0.08,0.49-0.18,1.04-0.79,1.04
			C312.99,199.63,312.89,199.08,312.81,198.59z"/>
		<path class="st1" d="M403.02,192.55c-0.89-0.41-1.57-1.04-1.93-1.97C402.25,190.73,402.94,191.34,403.02,192.55z"/>
		<path class="st1" d="M310.29,197.59c0.05,0.3,0.11,0.6,0.16,0.9c-0.33,0.44-0.85,0.72-1.12,0.15
			C308.96,197.84,309.7,197.71,310.29,197.59z"/>
		<path class="st1" d="M193.69,148.01c0.53,0,1.05,0.01,1.58,0.01c-0.08,0.49-0.19,1.02-0.79,1.02
			C193.87,149.04,193.77,148.5,193.69,148.01z"/>
		<path class="st1" d="M263.15,149.59c-0.25,0.22-0.39,0.44-0.55,0.46c-0.45,0.05-0.97,0.21-1.21-0.39
			c-0.01-0.01,0.4-0.27,0.62-0.28C262.36,149.38,262.71,149.5,263.15,149.59z"/>
		<path class="st1" d="M374.95,240.16c0.25-0.22,0.39-0.44,0.55-0.46c0.44-0.05,0.97-0.21,1.2,0.38c0.01,0.01-0.4,0.27-0.62,0.27
			C375.74,240.36,375.39,240.24,374.95,240.16z"/>
		<path class="st1" d="M281.68,232.56c0.52,0,1.03,0.01,1.55,0.01c-0.2,0.42-0.34,1.14-0.61,1.19
			C281.75,233.94,281.8,233.13,281.68,232.56z"/>
		<path class="st1" d="M291.18,218.86c-0.25,0.21-0.39,0.44-0.55,0.46c-0.45,0.05-0.97,0.21-1.2-0.38c-0.01-0.01,0.4-0.27,0.62-0.27
			C290.39,218.65,290.74,218.77,291.18,218.86z"/>
		<path class="st1" d="M227.05,188.2c-0.01,0.98-0.73,1.2-1.49,1.38C225.66,188.69,226.18,188.26,227.05,188.2z"/>
		<path class="st1" d="M266.56,219.95c-0.09,0.22-0.18,0.43-0.28,0.65c-0.21-0.09-0.55-0.14-0.61-0.29
			c-0.06-0.16,0.15-0.42,0.24-0.63C266.13,219.77,266.34,219.86,266.56,219.95z"/>
		<path class="st1" d="M320.99,119.88c-0.8,0.69-1.74,0.54-2.68,0.45C319.1,119.55,320.06,119.8,320.99,119.88z"/>
		<path class="st1" d="M235.61,248.92c0.19-0.88,0.66-1.51,1.59-1.68C237.07,248.17,236.49,248.68,235.61,248.92z"/>
		<path class="st1" d="M31.98,203.91c-0.11,0.49-0.23,0.97-0.34,1.46c-0.3-0.35-0.87-0.73-0.84-1.05
			C30.86,203.69,31.53,203.91,31.98,203.91z"/>
		<path class="st1" d="M92.1,203.27c-0.12-0.22-0.3-0.42-0.3-0.61c0-0.19,0.19-0.39,0.3-0.58c0.11,0.19,0.3,0.38,0.3,0.58
			C92.4,202.85,92.21,203.05,92.1,203.27z"/>
		<path class="st1" d="M90.57,184.92c0.11,0.23,0.28,0.43,0.27,0.63c-0.01,0.19-0.21,0.37-0.33,0.55c-0.1-0.2-0.28-0.4-0.27-0.6
			C90.24,185.32,90.44,185.13,90.57,184.92z"/>
		<path class="st1" d="M359.76,148.98c-0.23,0.11-0.43,0.29-0.63,0.28c-0.19-0.01-0.37-0.21-0.56-0.33c0.2-0.1,0.4-0.28,0.59-0.28
			C359.36,148.66,359.55,148.85,359.76,148.98z"/>
		<path class="st1" d="M286.74,148.61c0.2,0.12,0.39,0.23,0.58,0.34c-0.19,0.11-0.39,0.3-0.58,0.3c-0.19,0-0.39-0.19-0.58-0.3
			C286.35,148.84,286.54,148.73,286.74,148.61z"/>
		<path class="st1" d="M86.3,148.02c0.75-0.12,1.49-0.25,2.24-0.37C87.97,148.84,87.19,148.74,86.3,148.02z"/>
		<path class="st1" d="M420.12,212.81c-0.52-0.64-1.05-1.28-1.57-1.92C419.87,210.88,420.28,211.61,420.12,212.81z"/>
		<path class="st1" d="M421.73,215.47c-0.22-0.51-0.44-1.03-0.67-1.54C422.09,214.1,422.98,214.32,421.73,215.47z"/>
		<path class="st1" d="M423.74,217c-0.19-0.12-0.37-0.24-0.56-0.36c0.2-0.1,0.4-0.28,0.59-0.28c0.19,0.01,0.37,0.21,0.56,0.32
			C424.14,216.79,423.95,216.9,423.74,217z"/>
		<path class="st1" d="M355.86,219c-0.22,0.12-0.42,0.3-0.61,0.3c-0.19,0-0.39-0.19-0.58-0.3c0.19-0.11,0.39-0.3,0.58-0.3
			C355.45,218.7,355.64,218.88,355.86,219z"/>
		<path class="st1" d="M88.55,221.11c-0.75-0.12-1.5-0.24-2.25-0.37C87.19,219.98,87.97,219.9,88.55,221.11z"/>
		<path class="st1" d="M196.79,220.81c-0.77,0-1.53,0.01-2.3,0.01C195.26,219.98,196.03,219.98,196.79,220.81z"/>
		<path class="st1" d="M200.68,220.77c-0.76,0.01-1.52,0.02-2.28,0.03C199.15,219.98,199.91,219.98,200.68,220.77z"/>
		<path class="st1" d="M407.7,198.3c-0.03-0.22-0.04-0.43-0.03-0.65c0.6,0,1.21,0,2.08,0C408.98,198.56,408.31,198.3,407.7,198.3z"
			/>
		<path class="st1" d="M382.96,244.9c0.5,0.57,1,1.15,1.5,1.72C383.35,246.58,382.88,245.98,382.96,244.9z"/>
		<path class="st1" d="M88.5,195.46c-0.38-0.55-0.48-1.14-0.22-1.77C89.75,194.1,88.57,194.85,88.5,195.46z"/>
		<path class="st1" d="M228.48,187.4c-0.44,0.23-0.89,0.46-1.33,0.69C227.59,187.86,228.03,187.63,228.48,187.4z"/>
		<path class="st1" d="M368.66,135.03c0.03-0.09,0.06-0.27,0.1-0.27c0.11,0,0.22,0.06,0.32,0.1c-0.03,0.09-0.06,0.27-0.1,0.27
			C368.88,135.14,368.77,135.07,368.66,135.03z"/>
		<path class="st1" d="M270.13,235.15c0.03,0.1,0.1,0.25,0.07,0.28c-0.08,0.07-0.21,0.08-0.32,0.11c-0.03-0.1-0.1-0.25-0.07-0.28
			C269.89,235.2,270.02,235.19,270.13,235.15z"/>
		<path class="st1" d="M35.65,254.45c-0.26,0-0.52,0-0.77,0c0.1-0.35-0.16-0.94,0.51-0.88C35.5,253.57,35.56,254.14,35.65,254.45z"
			/>
		<path class="st1" d="M385.19,247.48c0.75,0.17,0.94,0.76,1.1,1.4C385.48,248.76,385.26,248.18,385.19,247.48z"/>
		<path class="st1" d="M72.36,198.86c0.42,0.04,0.83,0.08,1.25,0.12C73.2,198.94,72.78,198.9,72.36,198.86z"/>
		<path class="st1" d="M393.8,254.45c-0.48,0.15-0.96,0.29-1.44,0.44C392.54,253.76,392.96,253.45,393.8,254.45z"/>
		<path class="st1" d="M36.43,199.93c-0.27,0.19-0.54,0.39-0.82,0.58C35.37,199.58,36.17,200.14,36.43,199.93
			C36.43,199.93,36.43,199.93,36.43,199.93z"/>
		<path class="st1" d="M412.5,147.97c0.5-0.01,1.01-0.02,1.51-0.03C413.52,148.62,413.02,148.63,412.5,147.97z"/>
		<path class="st1" d="M288.69,147.83c0.51,0.03,1.02,0.07,1.53,0.1C289.67,148.61,289.16,148.56,288.69,147.83z"/>
		<path class="st1" d="M269.97,215.42c0.28-0.22,0.55-0.44,0.83-0.66c-0.09,0.33-0.18,0.66-0.28,0.99
			C270.33,215.64,270.15,215.53,269.97,215.42z"/>
		<path class="st1" d="M363.17,147.06c0.07,0.29,0.14,0.58,0.21,0.86c-0.19,0.02-0.38,0.04-0.57,0.06
			C362.93,147.67,363.05,147.37,363.17,147.06z"/>
		<path class="st1" d="M443.48,240.15c-0.36-0.4-0.72-0.8-1.07-1.2C443.06,239.08,443.42,239.48,443.48,240.15z"/>
		<path class="st1" d="M362.03,221.5c0.26,0.31,0.51,0.61,0.77,0.92C362.55,222.11,362.29,221.81,362.03,221.5z"/>
		<path class="st1" d="M279.21,231.03c-0.2,0.32-0.39,0.64-0.59,0.96C278.82,231.68,279.01,231.35,279.21,231.03z"/>
		<path class="st1" d="M87.79,187.52c-0.23-0.12-0.46-0.25-0.69-0.37C87.53,186.89,87.71,187.13,87.79,187.52z"/>
		<path class="st1" d="M384.46,246.61c0.23,0.27,0.47,0.55,0.7,0.82C384.92,247.16,384.69,246.88,384.46,246.61z"/>
		<path class="st1" d="M280.13,232.65c0.26-0.02,0.52-0.04,0.78-0.06C280.68,233.11,280.43,233.19,280.13,232.65z"/>
		<path class="st1" d="M47.31,220.76l-0.37,0.09l-0.37-0.11C46.83,220.4,47.07,220.41,47.31,220.76z"/>
		<path class="st1" d="M279.9,230.31c-0.2,0.2-0.4,0.4-0.6,0.61C279.5,230.72,279.7,230.51,279.9,230.31z"/>
		<path class="st1" d="M295.47,190.52c0.32-0.29,0.63-0.58,0.95-0.87C296.1,189.94,295.78,190.23,295.47,190.52z"/>
		<path class="st1" d="M319.47,188.3l-0.07,0.3c0,0-0.31,0.07-0.31,0.07C319.18,188.5,319.3,188.38,319.47,188.3z"/>
		<path class="st1" d="M400.06,180.47c0.23-0.29,0.46-0.58,0.7-0.86C400.52,179.89,400.29,180.18,400.06,180.47z"/>
		<path class="st1" d="M400.71,179.65c0.1-0.46,0.31-0.8,0.87-0.71C401.29,179.18,401,179.41,400.71,179.65z"/>
		<path class="st3" d="M31.91,128.34c0.08,0.18,0.18,0.35,0.23,0.54c0.01,0.05-0.16,0.14-0.25,0.21
			C31.78,128.84,31.78,128.59,31.91,128.34z"/>
		<path class="st1" d="M427.68,147.69c0.34-0.38,0.69-0.76,1.03-1.15C428.64,147.17,428.31,147.56,427.68,147.69z"/>
		<path class="st3" d="M269.21,154.01c-0.25-0.02-0.47-0.11-0.65-0.26C268.94,153.43,269.05,153.78,269.21,154.01z"/>
		<path class="st1" d="M32.98,153.03c0,0-0.1-0.02-0.1-0.02c-0.01-0.19-0.03-0.37-0.05-0.56C32.89,152.65,32.93,152.84,32.98,153.03
			z"/>
		<path class="st1" d="M318.51,189.12c-0.3,0.35-0.61,0.7-0.91,1.06C317.67,189.62,317.96,189.26,318.51,189.12z"/>
		<path class="st1" d="M353.32,147.93c0.25,0,0.5,0,0.76,0C353.83,148.29,353.57,148.3,353.32,147.93z"/>
		<path class="st1" d="M291.81,147.92c0.25,0,0.5,0,0.76,0.01C292.31,148.3,292.06,148.29,291.81,147.92z"/>
		<path class="st1" d="M417.16,209.22c-0.2-0.23-0.4-0.47-0.6-0.7C416.76,208.75,416.96,208.98,417.16,209.22z"/>
		<path class="st1" d="M88.51,215.42c0.11,0.11,0.23,0.22,0.34,0.33c-0.07-0.02-0.16-0.03-0.2-0.07c-0.06-0.08-0.09-0.18-0.13-0.27
			C88.52,215.41,88.51,215.42,88.51,215.42z"/>
		<path class="st1" d="M417.91,210.1c-0.24-0.28-0.48-0.56-0.71-0.84C417.44,209.54,417.67,209.82,417.91,210.1z"/>
		<path class="st1" d="M362.73,222.35c0.29,0.29,0.59,0.58,0.88,0.86C363.32,222.93,363.02,222.64,362.73,222.35z"/>
		<path class="st1" d="M88.04,137.33c0,0-0.02-0.09-0.02-0.09c0.24,0.02,0.48,0.03,0.71,0.05C88.5,137.3,88.27,137.32,88.04,137.33z
			"/>
		<path class="st1" d="M228.6,255.21c-0.14-0.2-0.21-0.43-0.22-0.67c0.21,0.06,0.42,0.13,0.63,0.19
			C228.87,254.89,228.74,255.05,228.6,255.21z"/>
		<path class="st0" d="M447.51,118.99c0.33,0.1,0.67,0.19,1,0.29C447.95,119.99,447.79,119.29,447.51,118.99
			C447.51,118.99,447.51,118.99,447.51,118.99z"/>
		<path class="st0" d="M224.06,254.49c0.08-0.45-0.06-1.16,0.63-1.04c0.36,0.06,0.64,0.67,0.95,1.03
			C225.12,254.49,224.59,254.49,224.06,254.49z"/>
		<path class="st1" d="M59.81,354.68c-0.62,5.09-1.42,11.16-7.42,14.69c-5.31,3.13-10.49,0.59-10.71-5.54
			c-0.21-5.91,0.9-11.62,5.78-15.74c2.56-2.16,5.66-2.77,8.71-1.49C59.12,347.84,59.98,350.6,59.81,354.68z"/>
		<path class="st1" d="M142.96,359.25c-0.65,6.01-2.4,10.46-8.42,11.96c-3.03,0.75-5.54,0.29-6.59-2.81
			c-1.01-2.97,0.83-5.11,3.4-6.02C134.93,361.09,138.72,360.36,142.96,359.25z"/>
		<path class="st1" d="M95.93,354.98c-1.03-0.01-2.08,0.09-3.1-0.03c-1.36-0.16-3.32,0.79-3.94-0.5c-0.73-1.55,0.7-3.13,1.68-4.46
			c2.43-3.29,6.27-4.87,9.48-3.68c3.06,1.14,4.22,3.65,3.91,6.8c-0.34,3.36-2.98,1.41-4.56,1.82
			C98.31,355.21,97.09,354.98,95.93,354.98z"/>
		<path class="st1" d="M200.93,354.76c-1.29,0-2.58,0.07-3.86-0.02c-1.1-0.08-2.57,0.62-3.21-0.48c-0.8-1.38,0.29-2.69,1.04-3.88
			c1.57-2.53,3.8-4.15,6.76-4.67c4.3-0.76,7.84,2.95,7.11,7.27c-0.27,1.57-1.17,1.79-2.42,1.79
			C204.54,354.76,202.73,354.76,200.93,354.76z"/>
		<path class="st1" d="M448.3,354.77c-1.16,0-2.33,0.08-3.48-0.03c-1.22-0.12-2.87,0.7-3.58-0.57c-0.76-1.36,0.39-2.68,1.14-3.86
			c1.61-2.5,3.83-4.13,6.81-4.62c4.21-0.7,7.85,3.2,7.01,7.4c-0.26,1.3-0.91,1.71-2.1,1.69
			C452.17,354.75,450.24,354.77,448.3,354.77z"/>
		<path class="st1" d="M339.07,354.76c-0.78,0-1.56,0.09-2.33-0.01c-1.58-0.22-3.93,0.92-4.59-0.68c-0.73-1.78,0.89-3.66,2.15-5.11
			c2.15-2.48,4.9-3.77,8.26-3.16c2.61,0.48,3.97,2.34,4.46,4.77c0.52,2.55,0.35,4.72-3.31,4.22
			C342.2,354.58,340.63,354.75,339.07,354.76z"/>
		<polygon class="st0" points="403.91,199.93 404.09,199.61 404.24,199.76 		"/>
	</g>
</g>
</svg>
