<svg id="svg2" xmlns="http://www.w3.org/2000/svg" viewBox="0 0 476.28 225.97"><defs><style>.cls-1{fill:#f45800;}</style></defs><title>etsy</title><path class="cls-1" d="M62.92,154.34V218.4s22.57,0,34.65-.92c9.5-1.66,11.25-2.58,13-12.08l3.5-13.91H124.4l-1.75,30.41.92,31.15H113.15l-2.58-12.17c-2.58-8.65-6.08-10.41-13-11.24-8.65-.92-34.65-.92-34.65-.92v53.72c0,10.34,5.25,14.75,17.33,14.75h36.4c11.24,0,22.48-.92,29.49-17.33L155.55,259h8.74c-.91,4.33-5.24,42.48-6.07,51.06,0,0-32.91-.83-46.73-.83H49.09l-37.23.83v-9.41L23.94,298c8.74-1.75,11.32-4.33,11.32-11.25,0,0,.92-23.4.92-62.39s-.92-62.31-.92-62.31c0-7.75-2.58-9.5-11.32-11.25l-12.08-2.56v-9.5l36.4.75h69.3c13.83,0,37.15-2.49,37.15-2.49s-.83,14.66-1.75,49.31h-9.5L140,174.16c-3.41-15.57-8.58-23.33-18.15-23.33H67.34C62.92,150.84,62.92,151.68,62.92,154.34Zm140.27,6.84h10.42v36.4l35.56-1.75-1.74,16.49-34.66-2.66V273.8c0,18.15,6.08,25.15,16.5,25.15,9.41,0,16.41-5.25,19-9.58l5.16,6.08c-5.16,12.08-19.82,18.16-33.74,18.16-17.24,0-31.24-10.33-31.24-30.24V210.56H167.78V201.9C185.12,200.16,198,189.74,203.19,161.18Zm74.55,111.69,6.91,16.49c2.58,6.91,8.65,13.92,22.48,13.92,14.75,0,20.82-7.83,20.82-17.33,0-29.49-58.05-20.82-58.05-60.64,0-22.49,18.16-33,41.56-33,10.42,0,26,1.75,33.82,5.24a157.87,157.87,0,0,0-2.67,28.58L334,227,328,209.64c-1.74-4.24-8.74-7.75-17.32-7.75-10.42,0-20.82,4.33-20.82,15.58,0,26.83,59.8,20.82,59.8,60.65,0,22.57-19.91,34.65-44.23,34.65-18.15,0-36.4-7-36.4-7,1.75-10.33.92-21.57,0-32.9ZM345.29,356c2.58-9.5,4.33-21.57,6.08-32.9l9.5-.83,3.49,18.15c.84,4.33,3.42,7.83,10.34,7.83,11.24,0,26-6.91,39.89-31.15-6.16-14.75-24.32-62.31-40.81-98.71-4.33-9.58-5.16-10.42-11.16-12.17l-4.42-1.66v-8.74l26.07.91,32-1.75v8.67l-7.83,1.75c-6.08.83-8.58,4.24-8.58,7.75a6.82,6.82,0,0,0,.83,3.5c1.66,5.25,15.58,44.15,26,70.13,8.59-18.15,25.08-58.88,27.66-65.8.92-3.5,1.75-4.33,1.75-6.91,0-4.41-2.58-7-8.58-8.66l-6.17-1.76V195l24.32.83,22.49-.83v8.65l-4.33,3.41c-8.66,3.5-9.57,4.33-13,11.33l-38.06,89.12c-22.57,51.15-46,55.47-62.39,55.47C360,363,352.12,360.33,345.29,356Z" transform="translate(-11.86 -137.02)"/></svg>